<?xml version="1.0" encoding="utf-8"?>
<!-- Generator: Adobe Illustrator 15.0.3, SVG Export Plug-In . SVG Version: 6.00 Build 0)  -->
<!DOCTYPE svg PUBLIC "-//W3C//DTD SVG 1.1//EN" "http://www.w3.org/Graphics/SVG/1.1/DTD/svg11.dtd">
<svg version="1.1" id="Ebene_1" xmlns="http://www.w3.org/2000/svg" xmlns:xlink="http://www.w3.org/1999/xlink" x="0px" y="0px"
	 width="400px" height="330px" viewBox="0 0 400 330" enable-background="new 0 0 400 330" xml:space="preserve">
<g>
	<polygon points="31.354,256.932 9.03,227.686 9.03,256.932 4.79,256.932 4.79,219.365 8.118,219.365 30.71,248.779 30.71,219.365 
		35.007,219.365 35.007,256.932 	"/>
	<g>
		<path d="M68.169,243.299c0,2.078-0.318,3.992-0.963,5.746c-0.645,1.75-1.549,3.25-2.713,4.504s-2.543,2.238-4.131,2.953
			c-1.592,0.715-3.357,1.07-5.289,1.07c-1.928,0-3.699-0.344-5.312-1.039c-1.607-0.703-3.008-1.676-4.188-2.93
			c-1.18-1.25-2.088-2.742-2.732-4.484c-0.646-1.73-0.967-3.656-0.967-5.762c0-2.043,0.32-3.922,0.967-5.641
			c0.645-1.715,1.553-3.18,2.732-4.398c1.18-1.215,2.588-2.168,4.217-2.848c1.627-0.68,3.424-1.02,5.396-1.02
			c1.855,0,3.574,0.359,5.146,1.078c1.576,0.715,2.945,1.691,4.109,2.922c1.16,1.234,2.076,2.691,2.734,4.371
			C67.837,239.506,68.169,241.33,68.169,243.299 M63.019,243.299c0-3.254-0.717-5.812-2.148-7.672
			c-1.428-1.859-3.416-2.793-5.953-2.793c-2.436,0-4.359,0.938-5.771,2.816c-1.412,1.883-2.119,4.445-2.119,7.707
			c0,3.465,0.707,6.141,2.119,8.02c1.412,1.883,3.408,2.82,5.984,2.82c2.467,0,4.4-0.957,5.795-2.875
			C62.317,249.408,63.019,246.732,63.019,243.299"/>
		<path d="M88.081,235.412c-0.752-0.398-1.404-0.719-1.957-0.969c-0.555-0.25-1.104-0.375-1.639-0.375
			c-0.857,0-1.629,0.305-2.309,0.91c-0.68,0.613-1.164,1.418-1.449,2.418c-0.252,0.785-0.428,1.672-0.535,2.66
			c-0.107,0.98-0.164,2.367-0.164,4.16v12.719H75.2v-26.84h4.828v3.754l1.133-1.711c0.496-0.793,1.123-1.43,1.875-1.934
			c0.752-0.5,1.592-0.754,2.523-0.754c0.748,0,1.51,0.207,2.281,0.617c0.768,0.414,1.615,1.102,2.547,2.07L88.081,235.412z"/>
		<path d="M110.085,255.857c-1,0.609-1.957,1.047-2.869,1.316c-0.916,0.27-1.908,0.402-2.98,0.402c-1.363,0-2.588-0.281-3.68-0.828
			c-1.088-0.559-1.975-1.336-2.652-2.344c-0.252-0.355-0.447-0.73-0.592-1.121c-0.143-0.395-0.26-0.852-0.348-1.367
			c-0.092-0.523-0.152-1.137-0.191-1.855c-0.033-0.715-0.049-1.59-0.049-2.625v-14.492h-3.76V230.1h3.76v-6.492l4.771-1.562v8.055
			h7.033v2.844h-7.033v14.168c0,1.359,0.064,2.496,0.193,3.402c0.123,0.918,0.328,1.645,0.615,2.18
			c0.285,0.535,0.668,0.922,1.156,1.152c0.48,0.23,1.1,0.352,1.848,0.352c1.217,0,2.416-0.324,3.596-0.969L110.085,255.857z"/>
		<path d="M132.304,256.932v-14.996c0-0.852-0.018-1.59-0.057-2.219c-0.031-0.625-0.088-1.16-0.16-1.609
			c-0.068-0.445-0.168-0.848-0.293-1.203c-0.127-0.359-0.279-0.711-0.459-1.07c-1-1.855-2.771-2.785-5.312-2.785
			c-1.535,0-2.891,0.344-4.051,1.043s-2.033,1.668-2.605,2.918c-0.283,0.68-0.479,1.41-0.592,2.199
			c-0.104,0.785-0.156,2-0.156,3.641v14.082h-4.832v-39.395h4.832v15.941c1.393-1.395,2.832-2.418,4.316-3.059
			c1.488-0.648,3.141-0.965,4.969-0.965c2.18,0,3.996,0.453,5.443,1.367c1.453,0.914,2.48,2.242,3.088,4
			c0.141,0.391,0.248,0.785,0.32,1.18c0.072,0.391,0.133,0.848,0.188,1.367c0.057,0.523,0.092,1.141,0.109,1.852
			c0.016,0.715,0.027,1.609,0.027,2.68v15.031H132.304z"/>
		<path d="M164.075,243.838h-15.889c0.037,1.57,0.285,3,0.752,4.266c0.465,1.27,1.1,2.355,1.904,3.273s1.76,1.613,2.873,2.094
			c1.107,0.48,2.344,0.723,3.703,0.723c2.359,0,4.703-0.77,7.031-2.309l1.393,2.574c-1.787,1.152-3.4,1.953-4.832,2.422
			c-1.428,0.461-2.984,0.695-4.668,0.695c-1.932,0-3.684-0.32-5.26-0.965c-1.572-0.645-2.928-1.562-4.076-2.738
			c-1.256-1.258-2.221-2.793-2.9-4.617c-0.676-1.824-1.02-3.863-1.02-6.113c0-2.043,0.305-3.887,0.912-5.535
			c0.611-1.637,1.469-3.07,2.58-4.289c1.107-1.215,2.432-2.164,3.969-2.844c1.539-0.68,3.234-1.023,5.1-1.023
			c2.432,0,4.471,0.547,6.119,1.641c1.645,1.094,2.84,2.762,3.596,5.02c0.285,0.926,0.516,1.992,0.697,3.191
			c0.176,1.199,0.283,2.707,0.318,4.535H164.075z M161.71,240.775v-0.723c0-0.23-0.016-0.457-0.055-0.668
			c-0.176-2.004-0.768-3.598-1.768-4.781c-1.004-1.184-2.438-1.77-4.293-1.77c-2.039,0-3.711,0.707-5.02,2.121
			s-2.053,3.352-2.225,5.82H161.71z"/>
		<path d="M185.698,235.412c-0.752-0.398-1.404-0.719-1.955-0.969c-0.557-0.25-1.105-0.375-1.641-0.375
			c-0.855,0-1.629,0.305-2.309,0.91c-0.68,0.613-1.164,1.418-1.447,2.418c-0.252,0.785-0.428,1.672-0.537,2.66
			c-0.107,0.98-0.162,2.367-0.162,4.16v12.719h-4.828v-26.84h4.828v3.754l1.131-1.711c0.496-0.793,1.125-1.43,1.877-1.934
			c0.752-0.5,1.592-0.754,2.523-0.754c0.748,0,1.508,0.207,2.279,0.617c0.768,0.414,1.617,1.102,2.549,2.07L185.698,235.412z"/>
		<path d="M210.761,256.932v-14.996c0-0.852-0.016-1.59-0.055-2.219c-0.031-0.625-0.086-1.16-0.16-1.609
			c-0.07-0.445-0.164-0.848-0.293-1.203c-0.129-0.359-0.281-0.711-0.457-1.07c-1.004-1.855-2.773-2.785-5.316-2.785
			c-1.535,0-2.887,0.344-4.051,1.043c-1.16,0.699-2.027,1.668-2.604,2.918c-0.283,0.68-0.477,1.41-0.588,2.199
			c-0.107,0.785-0.16,2-0.16,3.641v14.082h-4.828v-26.836h4.828v3.383c1.359-1.395,2.789-2.418,4.297-3.059
			c1.5-0.648,3.16-0.965,4.988-0.965c2.18,0,3.996,0.461,5.445,1.395c1.449,0.93,2.477,2.25,3.086,3.973
			c0.145,0.391,0.25,0.785,0.324,1.18c0.066,0.391,0.133,0.848,0.188,1.367c0.051,0.523,0.09,1.141,0.109,1.852
			c0.016,0.715,0.027,1.609,0.027,2.68v15.031H210.761z"/>
		<rect x="238.237" y="219.369" width="5.203" height="37.566"/>
		<path d="M265.343,235.412c-0.754-0.398-1.406-0.719-1.957-0.969c-0.555-0.25-1.105-0.375-1.641-0.375
			c-0.859,0-1.629,0.305-2.309,0.91c-0.68,0.613-1.164,1.418-1.453,2.418c-0.246,0.785-0.422,1.672-0.531,2.66
			c-0.105,0.98-0.164,2.367-0.164,4.16v12.719h-4.828v-26.84h4.828v3.754l1.129-1.711c0.5-0.793,1.129-1.43,1.875-1.934
			c0.758-0.5,1.598-0.754,2.527-0.754c0.75,0,1.512,0.207,2.281,0.617c0.77,0.414,1.617,1.102,2.547,2.07L265.343,235.412z"/>
		<path d="M289.601,243.838H273.71c0.039,1.57,0.285,3,0.754,4.266c0.469,1.27,1.102,2.355,1.906,3.273
			c0.801,0.918,1.762,1.613,2.871,2.094c1.105,0.48,2.344,0.723,3.703,0.723c2.359,0,4.703-0.77,7.031-2.309l1.391,2.574
			c-1.781,1.152-3.398,1.953-4.828,2.422c-1.43,0.461-2.988,0.695-4.672,0.695c-1.926,0-3.684-0.32-5.258-0.965
			s-2.934-1.562-4.078-2.738c-1.254-1.258-2.219-2.793-2.895-4.617c-0.68-1.824-1.023-3.863-1.023-6.113
			c0-2.043,0.309-3.887,0.914-5.535c0.609-1.637,1.465-3.07,2.578-4.289c1.105-1.215,2.434-2.164,3.973-2.844
			c1.535-0.68,3.23-1.023,5.094-1.023c2.434,0,4.473,0.547,6.121,1.641c1.645,1.094,2.844,2.762,3.598,5.02
			c0.285,0.926,0.516,1.992,0.695,3.191c0.176,1.199,0.281,2.707,0.32,4.535H289.601z M287.237,240.775v-0.723
			c0-0.23-0.02-0.457-0.059-0.668c-0.176-2.004-0.766-3.598-1.766-4.781s-2.434-1.77-4.293-1.77c-2.039,0-3.711,0.707-5.016,2.121
			c-1.309,1.414-2.055,3.352-2.23,5.82H287.237z"/>
		<rect x="298.347" y="217.541" width="4.832" height="39.395"/>
		<path d="M326.843,256.936c-0.148-0.398-0.266-0.727-0.375-1c-0.109-0.266-0.188-0.523-0.246-0.773
			c-0.051-0.25-0.094-0.547-0.133-0.887c-0.035-0.34-0.055-0.797-0.055-1.367c-1.355,1.82-2.77,3.055-4.234,3.703
			c-1.469,0.645-2.953,0.965-4.457,0.965c-1.07,0-2.062-0.18-2.98-0.535c-0.91-0.359-1.699-0.863-2.359-1.531
			c-0.664-0.66-1.188-1.457-1.578-2.387c-0.398-0.93-0.594-1.969-0.594-3.113c0-1.719,0.488-3.242,1.477-4.562
			c0.984-1.324,2.332-2.43,4.051-3.332c0.855-0.422,1.867-0.855,3.027-1.281c1.164-0.43,2.215-0.773,3.145-1.023
			c0.789-0.215,1.527-0.398,2.23-0.562c0.695-0.16,1.449-0.312,2.273-0.457c-0.102-0.859-0.262-1.672-0.48-2.438
			c-0.211-0.777-0.547-1.434-0.996-1.988c-0.441-0.555-1.016-0.996-1.715-1.316c-0.695-0.324-1.562-0.48-2.602-0.48
			c-2.254,0-4.527,0.965-6.812,2.895l-1.883-2.414c1.355-1.254,2.816-2.168,4.375-2.738s3.277-0.859,5.18-0.859
			c1.754,0,3.336,0.277,4.75,0.832c1.414,0.562,2.527,1.41,3.352,2.555c0.289,0.426,0.543,0.848,0.754,1.258
			c0.215,0.414,0.383,0.891,0.508,1.453c0.129,0.551,0.223,1.219,0.297,2.008c0.066,0.789,0.105,1.793,0.105,3.012v7.777
			c0,1.219,0.016,2.227,0.059,3.031c0.031,0.809,0.086,1.512,0.16,2.121c0.066,0.605,0.184,1.172,0.348,1.691
			c0.16,0.52,0.367,1.098,0.617,1.746H326.843z M326.144,241.955c-0.391,0.043-0.891,0.129-1.484,0.27
			c-0.594,0.145-1.176,0.289-1.746,0.43c-1.117,0.25-2.164,0.566-3.156,0.941s-1.859,0.832-2.59,1.367
			c-0.734,0.539-1.32,1.172-1.754,1.906c-0.43,0.73-0.645,1.562-0.645,2.496c0,1.359,0.387,2.438,1.16,3.246
			c0.77,0.805,1.77,1.203,2.992,1.203c0.934,0,1.777-0.16,2.535-0.477c0.75-0.32,1.406-0.734,1.969-1.238
			c0.551-0.496,1.012-1.043,1.371-1.637c0.359-0.586,0.609-1.137,0.754-1.637c0.18-0.535,0.34-1.156,0.484-1.879
			c0.145-0.711,0.195-1.5,0.164-2.355L326.144,241.955z"/>
		<path d="M357.754,256.932v-14.996c0-0.852-0.016-1.59-0.055-2.219c-0.031-0.625-0.086-1.16-0.16-1.609
			c-0.066-0.445-0.164-0.848-0.293-1.203c-0.129-0.359-0.277-0.711-0.457-1.07c-1-1.855-2.773-2.785-5.313-2.785
			c-1.539,0-2.891,0.344-4.055,1.043c-1.16,0.699-2.027,1.668-2.602,2.918c-0.285,0.68-0.477,1.41-0.59,2.199
			c-0.105,0.785-0.16,2-0.16,3.641v14.082h-4.832v-26.836h4.832v3.383c1.355-1.395,2.789-2.418,4.297-3.059
			c1.5-0.648,3.16-0.965,4.989-0.965c2.18,0,3.996,0.461,5.449,1.395c1.445,0.93,2.473,2.25,3.082,3.973
			c0.145,0.391,0.254,0.785,0.324,1.18c0.066,0.391,0.133,0.848,0.188,1.367c0.051,0.523,0.09,1.141,0.109,1.852
			c0.016,0.715,0.027,1.609,0.027,2.68v15.031H357.754z"/>
		<path d="M390.383,256.932v-4.184c-1.359,1.68-2.785,2.906-4.289,3.676c-1.5,0.762-3.203,1.152-5.102,1.152
			c-1.969,0-3.699-0.391-5.207-1.152c-1.5-0.77-2.762-1.809-3.781-3.117s-1.789-2.797-2.309-4.477
			c-0.52-1.684-0.777-3.434-0.777-5.262c0-2.039,0.324-3.918,0.961-5.637c0.648-1.711,1.555-3.207,2.715-4.48
			c1.164-1.27,2.531-2.25,4.105-2.953c1.578-0.699,3.293-1.047,5.152-1.047c1.898,0,3.5,0.316,4.805,0.941s2.547,1.66,3.727,3.086
			v-15.938H395v39.391H390.383z M390.441,243.029c0-3.105-0.754-5.59-2.254-7.43c-1.504-1.84-3.527-2.766-6.066-2.766
			c-2.469,0-4.43,0.906-5.875,2.715c-1.453,1.805-2.176,4.277-2.176,7.426c0,1.719,0.188,3.27,0.562,4.645
			c0.379,1.375,0.914,2.547,1.613,3.512c0.695,0.973,1.535,1.719,2.52,2.262c0.988,0.535,2.086,0.801,3.305,0.801
			c1.25,0,2.387-0.266,3.406-0.801c1.02-0.543,1.891-1.297,2.629-2.285c0.73-0.98,1.305-2.152,1.715-3.516
			C390.234,246.24,390.441,244.717,390.441,243.029"/>
		<path d="M115.878,308.533l-3.809-11.004H97.417l-4.076,11.004h-4.672l15.4-37.562h3.439l14.061,37.562H115.878z M105.038,277.623
			l-6.229,16.152h11.969L105.038,277.623z"/>
		<path d="M140.405,301.342c0,1.145-0.221,2.203-0.664,3.172c-0.445,0.961-1.053,1.789-1.832,2.492
			c-0.781,0.699-1.729,1.234-2.854,1.609c-1.119,0.379-2.344,0.562-3.668,0.562c-1.68,0-3.164-0.258-4.455-0.773
			c-1.289-0.52-2.645-1.406-4.076-2.66l2.359-2.684c1.113,1.039,2.084,1.754,2.928,2.148c0.842,0.391,1.777,0.59,2.812,0.59
			c1.365,0,2.453-0.352,3.277-1.047c0.822-0.695,1.234-1.652,1.234-2.875c0-0.496-0.055-0.953-0.164-1.359
			c-0.107-0.414-0.318-0.828-0.643-1.242c-0.324-0.406-0.785-0.859-1.377-1.34c-0.596-0.484-1.375-1.062-2.348-1.742
			c-0.721-0.504-1.455-1.031-2.213-1.586c-0.752-0.551-1.443-1.156-2.074-1.797c-0.629-0.645-1.141-1.352-1.537-2.121
			c-0.396-0.766-0.592-1.633-0.592-2.602c0-1.004,0.213-1.934,0.645-2.793c0.428-0.855,1.027-1.598,1.795-2.227
			c0.773-0.621,1.676-1.117,2.713-1.477c1.035-0.355,2.145-0.535,3.324-0.535c1.363,0,2.604,0.207,3.732,0.613
			c1.127,0.414,2.211,1.02,3.242,1.805l-1.928,2.465c-1.467-1.145-3.096-1.719-4.883-1.719c-1.148,0-2.092,0.277-2.85,0.836
			c-0.746,0.555-1.123,1.277-1.123,2.172c0,0.715,0.225,1.359,0.672,1.93c0.443,0.574,1.297,1.309,2.549,2.207
			c1.643,1.176,2.988,2.195,4.023,3.055s1.852,1.656,2.443,2.387c0.588,0.738,0.992,1.453,1.209,2.148
			C140.296,299.654,140.405,300.447,140.405,301.342"/>
		<path d="M161.927,301.342c0,1.145-0.221,2.203-0.664,3.172c-0.445,0.961-1.053,1.789-1.832,2.492
			c-0.781,0.699-1.729,1.234-2.854,1.609c-1.119,0.379-2.344,0.562-3.668,0.562c-1.68,0-3.164-0.258-4.455-0.773
			c-1.287-0.52-2.645-1.406-4.076-2.66l2.359-2.684c1.113,1.039,2.084,1.754,2.93,2.148c0.84,0.391,1.775,0.59,2.811,0.59
			c1.365,0,2.453-0.352,3.277-1.047c0.822-0.695,1.234-1.652,1.234-2.875c0-0.496-0.055-0.953-0.164-1.359
			c-0.107-0.414-0.318-0.828-0.643-1.242c-0.324-0.406-0.785-0.859-1.377-1.34c-0.596-0.484-1.375-1.062-2.348-1.742
			c-0.721-0.504-1.455-1.031-2.213-1.586c-0.752-0.551-1.443-1.156-2.074-1.797c-0.629-0.645-1.141-1.352-1.537-2.121
			c-0.396-0.766-0.592-1.633-0.592-2.602c0-1.004,0.213-1.934,0.645-2.793c0.428-0.855,1.027-1.598,1.795-2.227
			c0.773-0.621,1.676-1.117,2.713-1.477c1.035-0.355,2.145-0.535,3.324-0.535c1.363,0,2.604,0.207,3.732,0.613
			c1.127,0.414,2.211,1.02,3.242,1.805l-1.928,2.465c-1.467-1.145-3.096-1.719-4.883-1.719c-1.148,0-2.092,0.277-2.848,0.836
			c-0.748,0.555-1.125,1.277-1.125,2.172c0,0.715,0.225,1.359,0.672,1.93c0.443,0.574,1.297,1.309,2.549,2.207
			c1.643,1.176,2.988,2.195,4.023,3.055s1.852,1.656,2.443,2.387c0.588,0.738,0.992,1.453,1.209,2.148
			C161.817,299.654,161.927,300.447,161.927,301.342"/>
		<path d="M187.044,295.439h-15.887c0.035,1.578,0.283,3,0.752,4.27c0.463,1.266,1.1,2.355,1.902,3.27
			c0.805,0.918,1.762,1.613,2.873,2.094c1.107,0.484,2.344,0.723,3.703,0.723c2.361,0,4.705-0.766,7.033-2.309l1.391,2.578
			c-1.787,1.152-3.398,1.953-4.832,2.418c-1.428,0.461-2.982,0.699-4.668,0.699c-1.932,0-3.684-0.32-5.26-0.965
			c-1.572-0.648-2.928-1.566-4.076-2.742c-1.256-1.254-2.219-2.789-2.898-4.613c-0.676-1.824-1.018-3.863-1.018-6.117
			c0-2.039,0.301-3.883,0.908-5.531c0.613-1.641,1.469-3.074,2.58-4.293c1.109-1.211,2.432-2.164,3.969-2.844
			c1.539-0.676,3.236-1.02,5.1-1.02c2.432,0,4.473,0.543,6.121,1.641c1.643,1.09,2.84,2.758,3.596,5.02
			c0.283,0.922,0.516,1.992,0.695,3.188c0.176,1.199,0.289,2.707,0.32,4.535H187.044z M184.681,292.381v-0.727
			c0-0.23-0.016-0.453-0.057-0.668c-0.176-2.004-0.768-3.594-1.768-4.777c-1.004-1.184-2.436-1.773-4.291-1.773
			c-2.041,0-3.713,0.707-5.021,2.125c-1.307,1.41-2.051,3.352-2.223,5.82H184.681z"/>
		<path d="M230.03,308.537v-15.582c0-1.684-0.098-2.973-0.297-3.883s-0.508-1.672-0.938-2.281c-1.039-1.422-2.574-2.137-4.617-2.137
			c-1.32,0-2.508,0.277-3.543,0.832c-1.039,0.547-1.805,1.332-2.305,2.332c-0.324,0.598-0.551,1.32-0.676,2.164
			c-0.125,0.84-0.184,2.059-0.184,3.668v14.887h-4.836v-15.582c0-1.465-0.074-2.645-0.238-3.535c-0.16-0.891-0.438-1.645-0.828-2.25
			c-1.039-1.68-2.633-2.516-4.781-2.516c-1.285,0-2.453,0.293-3.488,0.883c-1.035,0.586-1.824,1.402-2.359,2.434
			c-0.289,0.609-0.496,1.312-0.621,2.117c-0.121,0.805-0.184,1.883-0.184,3.242v15.207h-4.832v-26.836h4.832v3.379
			c2.359-2.684,5.227-4.023,8.59-4.023c3.43,0,6.098,1.34,7.992,4.023c1.719-1.426,3.293-2.461,4.723-3.082
			c1.434-0.625,2.988-0.941,4.668-0.941c1.828,0,3.398,0.395,4.723,1.18c1.324,0.789,2.344,1.934,3.062,3.438
			c0.215,0.43,0.375,0.832,0.484,1.207c0.105,0.375,0.191,0.82,0.266,1.34c0.07,0.52,0.117,1.141,0.137,1.852
			c0.016,0.719,0.027,1.613,0.027,2.684v15.781H230.03z"/>
		<path d="M268.452,294.525c0,2.113-0.316,4.066-0.961,5.855c-0.645,1.785-1.547,3.328-2.711,4.637
			c-1.168,1.309-2.535,2.328-4.105,3.059c-1.578,0.738-3.293,1.102-5.152,1.102c-1.754,0-3.285-0.312-4.594-0.938
			c-1.305-0.625-2.613-1.727-3.938-3.301v3.598h-4.672v-39.395h4.672v16.641c2.285-3.148,5.453-4.73,9.5-4.73
			c1.781,0,3.414,0.332,4.879,0.996c1.469,0.664,2.727,1.586,3.789,2.766c1.055,1.18,1.867,2.59,2.434,4.238
			C268.171,290.697,268.452,292.521,268.452,294.525 M263.304,294.74c0-3.219-0.707-5.738-2.121-7.562
			c-1.41-1.828-3.352-2.738-5.824-2.738c-1.254,0-2.391,0.258-3.434,0.773c-1.035,0.52-1.922,1.266-2.656,2.234
			c-0.73,0.965-1.293,2.125-1.688,3.488c-0.395,1.355-0.59,2.879-0.59,4.559c0,3.215,0.738,5.742,2.223,7.566
			c1.488,1.82,3.566,2.738,6.258,2.738c2.105,0,3.77-0.68,4.992-2.039c0.926-1.043,1.629-2.344,2.113-3.918
			C263.065,298.268,263.304,296.564,263.304,294.74"/>
		<rect x="274.573" y="269.143" width="4.828" height="39.398"/>
		<path d="M296.257,312.506c-0.719,1.613-1.426,3.016-2.121,4.219c-0.695,1.191-1.547,2.203-2.547,3.023
			c-0.902,0.715-1.93,1.27-3.09,1.645c-1.164,0.371-2.602,0.559-4.324,0.559h-1.121v-3.594h1.18c0.926,0,1.727-0.055,2.387-0.16
			c0.664-0.109,1.254-0.297,1.773-0.566c0.52-0.266,0.984-0.629,1.395-1.07c0.41-0.453,0.828-1.027,1.262-1.75
			c0.324-0.531,0.793-1.461,1.418-2.785c0.629-1.324,1.41-2.992,2.336-4.992l-10.895-24.473l4.723-1.289l8.27,20.77l8.801-20.77
			l3.965,0.965L296.257,312.506z"/>
		<path fill="#5E89C2" d="M196.464,187.678c1.137-5.094,3.082-9.898,4.41-14.949c1.477-3.328,3.398-8.293,5.352-11.379
			c6.648-2.055,12.941-4.137,16.551-10.793c1.996-3.812,3.664-7.855,3.758-12.332c-6.223,6.953-12.93,13.324-19.812,18.844
			c1.422-5.52,5.602-15.283,7.836-20.523c3.801-5.568,9.59-5.527,13.348-11.428c3.422-4.621,5.945-6.684,6.609-12.447
			c-0.285-0.762,0.141-3.93-0.801-4.121c-5.418,6.137-12.312,14.111-17.207,20.535c1.852-5.471,5.324-22.543,7.84-27.738
			c1.996-2.285,5.91-3.156,7.285-6.061c4.09-5.805,4.191-10.488,4.719-17.725c-0.094-0.619,0.191-1.664-0.242-2.283l-0.664,0.803
			c-2.664,7.004-6.746,13.473-11.215,19.758c-0.281-8.24-0.594-6.625,0.832-14.152c0.949-3.041,3.234-5.516,5.934-7.516
			c3.906-2.812,8.031-5.189,11.738-8.232c0.91,4.707,3.328,9.232,7.082,12.318c3.234,3.145,7.789,4.289,10.598,7.996
			c1.285,1.289,1.996,2.381,2.945,3.904c-7.078-2.088-13.637-6.943-19.48-12.328l-3.422-3.996c-0.23-0.051-0.426,0-0.57,0.24
			c1.051,5.713,2.66,11.949,8.312,15.516c4.562,3.332,10.363,2.996,15.871,3.762c0.188,0.57,0.898,0.283,1.234,0.807
			c3.613,3.045,5.137,7.568,4.086,11.9c-0.762,4.852-2.367,9.664-3.848,14.363c-1.379-7.508-5.797-14.082-4.559-22.359
			c-3.566,4.281-6.938,10.281-4.234,15.852c0.902,4.186,5.414,6.893,5.801,11.316c-1.852,9.381-7.605,17.324-14.777,24.324
			c3.469-6.328,1.285-14.992,4.656-21.367c0.852-2.244,2.094-4.381,2.945-6.621c-0.281-0.48-0.809-0.092-1.133,0.096
			c-6.566,5.186-12.125,12.328-11.508,20.805c0.617,3.232,0.617,6.041,0.91,9.232l-0.43,1.283
			c-5.375,5.568-12.742,12.061-19.16,15.963c-0.324-0.953,0.102-2.188,0.34-3.191c2.609-7.809,3.492-9.691,8.578-16.496
			c0.094-0.371,0.328-0.711,0.328-1.135h-0.668c-7.547,5.611-13.25,7.904-13.25,18.174c-0.379,2.285,0.199,3.738-1.703,5.641
			C210.839,179.51,202.542,178.826,196.464,187.678 M196.317,170.311c0.287,5.672-1.521,6.703-3.281,11.66
			c-0.992,1.664-1.184,3.566-2.512,5.043c-0.619-0.047-0.809-0.859-1.049-1.383c-1.092-7.473-5.078-13.758-5.791-21.371
			c-0.908-2.855,1.893-4.754,2.516-7.281c3.088-7.141,2.328-17.422-0.477-24.566c-0.428-0.23-0.52-0.951-1.043-0.711
			c-0.668,1.768-0.477,3.812-0.996,5.623c-1.809,6.42-4.328,13.561-2.188,20.658l-0.096,1.047
			c-3.041-4.625-4.705-9.764-6.514-14.852c-0.807-3.145-3.943-13.492-3.852-16.869c4.137-6.047,5.939-14.092,4.088-21.656
			c-0.803-3.52-1.996-6.9-3.852-9.943c-0.428-0.188-0.805,0.385-0.707,0.572c1.615,9.471-4.137,17.893-3.426,27.596
			c-2.852-6.275-2.795-6.732-3.742-14.301l-1.617-5.803c-2.145-6.332,1.324-11.949,5.225-16.232l3.084-2.615
			c7.6-2.857,16.252-3.857,21.904-10.664c0.572-0.572,0.904-1.236,0.904-2.045l0.1-0.461c-5.033,2.182-10.596,4.266-16.16,5.27
			c-0.852,0.23-1.516,0.859-2.275,1.23c4.322-4.043,8.691-8.184,12.639-12.891c3.848,2.24,7.408,5.096,11.064,7.66l3.32,2.764
			c2.051,1.32,4.047,2.432,6.109,3.992c-0.707-0.264-8.242-2.16-14.143,1.084c-6.311,3.477-11.539,5.592-11.539,5.592
			s7.168,5.592,12.596,1.959c5.426-3.619,15.156-5.436,15.156-5.436c2.41-0.152,3.637,1.869,3.637,1.869
			c1.578,1.52,1.434,1.738,2.633,3.596c2.609,6.188,3.09,12.324,2.848,19.42c-3.797-6.096-6.75-13.137-6.27-20.656
			c-0.09-0.279-0.48-0.336-0.664-0.141c-4.613,6.797-4.117,15.34,0.027,22.053c0.992,1.385,3.199,2.359,4.531,3.072
			c0.762,0.859,0.051,1.955-0.09,2.863c-2.242,6.797-3.852,13.889-6.086,20.652c-1.277-7.863-3.531-11.672-3.391-19.324
			c-0.234-0.145-0.375-0.615-0.809-0.432c-2.414,3.9-1.93,3.664-3.207,8.131c-1.191,6.617-0.809,13.713,3.652,18.617
			c0.43,2.375-1.094,4.279-1.473,6.523c-1.328,3.904-3.613,11.43-5.461,15.148c0-6.762-1.092-13.523-2.615-19.664
			c-0.191-0.096-0.283-0.477-0.572-0.336l-0.332,0.336C193.94,152.893,190.097,162.748,196.317,170.311 M169.821,170.42
			c-5.793-6.277-4.273-15.979-9.361-22.746c-2.18-2.617-4.176-5.041-7.172-6.758c0.381,3,2,5.66,2.855,8.568
			c1.328,4.9,1.137,10.424,4.561,14.42c-6.371-4.285-17.775-8.898-19.391-17.803c-2.045-8.996-8.221-16.518-15.637-22.756
			c-0.141-0.041-0.424,0.1-0.564-0.09c-0.572,0.572,0.141,1.186,0.141,1.805c2.992,6.24,6.988,11.996,8.412,18.855l0.471,0.809
			c-4.271-3.092-13.928-11.164-17.164-15.641c-6.062-4.959,0.633-8.863,2.221-14.07c1.58-5.217-2.035-12.014-2.035-12.014
			s-1.365,3.857-4.301,9.748c-2.943,5.889-1.82,12.34-1.82,12.34l0.332,0.713c-6.18-2.855-5.463-9.512-5.232-15.08
			c0,0-0.355-2.08,1.145-4.328c4.373-7.572,15.301-9.379,17.771-18.611l0.809-2.668c4.363,2.096,9.881,1.816,14.82,1.139
			c3.232,1.193,6.324,2.576,9.359,4.244l3.66,1.945c4.32,1.527,3.607,6.379,4.564,9.955c0.184,2.088,0.852,4.045,1.141,6.133
			c-2.477-2.332-2.098-6.041-3.564-8.904c0,0-2.469-4.332-11.312-4.779c-2.027-0.113-4.068,1.811-4.068,1.811
			s4.293,1.357,5.201,2.941c2.107,3.699,6.227,5.611,7.42,5.982c1.752,1.949,3.867,3.09,4.688,5.697
			c3.004,5.455,2.775,10.148,4.816,14.619c1.188,3.953,2.568,7.852,4.088,11.664c-4.512-6.287-13.213-11.52-16.961-19.08
			c-0.664-0.148-0.195,0.617-0.475,0.805c1.328,11.371,9.402,21.561,19.623,27.084c1.279,0.76,1.896,1.852,2.607,3.043
			c2.285,4.904,4.564,9.758,6.846,14.664c0.752,3.047,2.043,7.18,2.043,7.18c2.279,4.102,4.416,8.66,4.324,13.375
			C178.501,176.725,177.192,176.893,169.821,170.42 M119.112,74.17c1.141-1.332,1.564-2.953,2.279-4.477
			c4.893,5.664,11.213,9.848,17.342,13.52v0.328h-1c-4.416-1.473-8.121-4.615-13.258-4.324c-2.084,0.66-4.414,0.66-6.123,2.283
			c1.188,1.045,4.111,2.484,5.68,3.053c-2.803,3.904-6.963,7.703-11.291,10.08c-1.232,0.855-2.416,2.088-3.084,3.428
			C112.124,89.785,115.216,81.789,119.112,74.17 M192.472,58.08c2.186,3.953,6.08,7.426,7.172,11.992l-11.307-6.084
			C190.048,62.174,190.853,59.938,192.472,58.08 M280.491,102.74c1.898-2.424,2.34-4.252,5.098-4.828
			c2.234-0.375,4.23,0.861,5.844,2.053c0.434,0.615,1.051,1.141,1.004,1.943c-8.715,0.77-6.027-0.295-15.043,5.725
			C279.655,104.584,278.765,105.338,280.491,102.74 M360.992,189.533c-2.133-3.996-6.316-6.379-10.646-6.852
			c1.668-1.051,4.095-1.004,6.185-0.809c1.281,0.281,2.566,1.234,3.656,1.379c-0.617-1.281-1.566-2.285-2.754-3.094
			c-4.18-2.328-9.606-1.148-13.446,1.145c-3.898,2.281-8.938,1.52-12.875-0.102c2.281-0.762,4.562-1.613,6.605-2.996
			c3.844-3.43,8.879-4.336,14.16-3.281c-0.199-1.055,0.156-3.902-2.301-5.16c-4.73-2.418-7.238-2.469-9.797-0.543
			c-6.102,6.156-7.996,7.855-7.996,7.855c-4.375,2.434-8.656-0.062-12.223-3.102l-0.422-0.574c7.227-0.047,12.734-4.141,18.336-8.09
			c0,0,4.855-3.266,5.844-3.668c1.66-1.715,4.043-2.332,6.031-3.66c-1.609-0.238-3.848,0-5.27,0.23
			c-3.172,0.602-5.465,1.715-5.465,1.715c-3.566,1.957-6.652,5.477-10.504,6.516c0-0.082,0.105-0.129,0.145-0.23
			c0.383-1.102-0.188-2.137-1.145-2.707c-1.848-0.859-4.031-0.91-6.027-0.391c0.711,0.715,2.082,0.859,2.852,1.719
			c0.664,0.906,1.473,1.852,1.145,2.996c-1.434,2.422-4.426,2.613-7.086,2.711c-7.691-0.711-13.922-6.094-22-4.898
			c5.754-4,11.828-8.664,16.539-13.709c0.477-0.096,1.281-0.236,1.707,0.139c2.754-0.475,5.562-1.188,7.512-3.23
			c-0.477,1.043-0.91,2.043-1.047,3.23c0.277,1.484,0.57,3.285,2.273,3.855c3.852,0.188,8.32,3.812,11.414-0.422
			c0.469-2.049,2.848-1.861,3.992-3.434c1.035-0.947,0.23-2.428,0.465-3.566c1.141-0.236,1.672,0.906,2.758,0.807
			c1.234-0.379,2.852,0.1,3.613-1.471c0.566-2.285,3.277-3.43,3.23-5.949c-0.902-2.336,0.613-4.809-0.57-7.096
			c-1.234-2.188-3.848-2.855-6.273-2.523c1.711-1.477,2.332-3.621,1.711-5.805c-0.383-2.523-2.566-5.188-5.039-5.951
			c-2.465-1.088-4.746-2.656-7.645-1.709c-2.523,0.188-2.523,3.184-3.523,4.705c-0.184-0.9-0.711-1.66-1.277-2.43
			c-3.043-3.604-7.359-0.852-11.023-0.803c-2.805,1.471-4.227,4.664-5.848,7.232c-1.422,1.432-0.141,3.428-0.23,5.139
			c0.805,1.816,2.281,3.336,4.223,3.768c-2.609,1.896-5.273,5.041-4.32,8.426c1.426,1.803-0.043,4.42,1.711,6.084
			c-0.859,1.248-2.141,2.387-3.426,3.051c3.047-4.615-1.852-8.803-0.898-13.564c0.047-0.76,0.758-1.668,0.57-2.191
			c-5.602,1.957-2.473,8.617-2.52,12.564c-0.289,0.908-0.477,2.191-1.234,2.527v-0.336c1.234-6.572-5.512-12.471-0.809-18.611
			l-0.141-0.141c-1,0.76-1.805,1.428-2.711,2.424c-3.848,4.428-2.422,11.088-0.809,16.092c1.141,3.664-0.949,6.285-2.758,8.898
			c-5.359,4.859-11.875,7.52-17.855,11.086c-1.191,0.383-2.332,1.195-3.57,1.055c0,0-4.289,0.848-5.664,1.066
			c-7.371,1.555-4.453,0.547-9.586,0.836c8.504-4.43,12.449-13.848,20.957-18.473l-0.246-0.234
			c-1.801,0.234-3.559,0.766-5.312,1.141c-7.371,1.809-12.449,8.953-17.91,13.801c-5.09,5.051-12.125,5.336-18.824,6.434
			c-8.602,0.992-16.574,3.559-24.512,6.133c-2.703,0.57-5.273,2.145-7.887,2.281c-0.289-0.664,0.57-0.52,0.57-1
			c9.117-4.66,20.48-12.188,29.891-16.086c3.516-0.242,7.461-0.473,10.93-0.953c8.312-0.289,12.441-4.281,17.57-10.367
			c1.094-1.523,2.996-2.957,3.09-4.805c-1,0.332-1.852,1.045-2.758,1.707c-7.219,3.855-11.633,6.133-19.852,7.66
			c-1.949,0.246-3.852,0.957-5.699,1.145c3.852-4.477,13.547-11.908,18.539-14.816c9.168-6.135,17.559-4.684,23.637-16.012
			c3.328-3.859,2.094-9.707,1.711-14.512c-3.699,9.271-9.355,14.176-16.625,19.988c-1.617,1.283-3.141,3.088-5.043,3.332
			l1.363-2.641c6.414-8.566,4.633-12.18,9.859-21.264c1.125-2.668,2.875-5.889,4.945-6.988c4.805-2.562,11.336-0.703,15.816-3.863
			c-0.09,1.52-1.328,3.092-0.57,4.477c2.379-1.717,4.086-4.24,4.891-6.857l5.133-1.947l0.098-0.336
			c-1.566-1-3.805-0.477-5.562-0.951c-0.238-1.426-1.23-2.625-2.18-3.766c-1.996-1.996-4.949-2.799-7.746-2.375
			c2.797-1.568,6.363-2.092,9.785-1.473c2.992,1.232,6.133,3.564,7.418,6.705c2.414,3.191-1.34,5.707-2.625,8.143
			c-2.227,2.752-1.473,6.9,0,9.797c1.574,0.057,2.715-1.611,3.992-2.615c3.379-3.277,2.242-8.324,1.816-12.225l0.227-0.24
			c0.859,0.424,1.48,1.283,1.852,2.053c0.863,4.943,4.473,9.895,9.465,11.416c1.133,0.096,2.613,0.811,3.512,0.139
			c0.051-2.424-0.242-5.611-1.809-7.756c-3.227-6.092-10.922-4.471-14.586-9.939c3.945,0.232,6.988,3.424,10.938,4.088
			c4.887,1.381,9.207-1.428,11.879-4.809l0.324-0.76c-5.035,0.852-10.828,0.852-15.73,0c-5.414-0.432-9.359-4.336-14.246-5.943
			c0.945-0.537,2.18-0.432,3.18-0.816c6.316-0.859,12.688,3.709,18.578,0.477c3.566-2.092,6.934-5.852,6.934-9.953
			c-4.512-0.324-8.738,1.389-12.062,4.672c-2.805,2.568-6.703,3.232-10.602,2.521c2.289-1.098,4.855-1.809,6.703-3.766
			c4.133-3.512,4.133-9.135,7.98-12.895c-7.934,1.715-10.973,9.807-16.395,15.184c-1.32,0.812-2.988,2.047-4.559,0.904
			c0.145-3.332,3.895-4.953,5.703-7.088c3-3.381,1.711-8.428,0.234-12.088c-1.945,0.947-3.609,2.996-4.695,4.803
			c-2.43,2.904-1.434,7.521-2.145,10.854c-1.141,3.336-4.703,5.619-7.879,6.375c-3,0.768-5.898,2.527-7.891,4.9l-0.684,1
			c-4.906,6.26-3.977,7.711-8.875,12.852l-0.23-0.24l2.848-15.412c0.266-2.943,1.324-1.145,5.844-1.6
			c4.523-0.451,4.074-7.023,4.074-7.023s-1.586,2.264-4.523,2.492c-2.945,0.23-4.902,1.832-4.902,1.832
			c0.555-3.328,1.453-6.5,2.363-9.652c0.664,2.623,3.418,3.287,5.605,3.904c2.273-1.049,4.891-0.525,6.453-3.098
			c2.055-0.326,2.383-2.52,2.996-4c0.711-0.943-0.047-2.086-0.141-2.994c0.996,0.379,2.379,0.379,3.328,0
			c1.852-1.045,2.371-3.045,2.371-4.992c-0.898-1.953,2.098-3.285,0.719-5.281c-0.477-1.672,0.562-3.764-1.043-5.139
			c-1.43-1.34-3.328-0.816-4.895-0.434c0.469-0.906,0.898-1.814,1.035-2.852c-0.277-1.387,0.148-2.623-0.711-3.764
			c-2.66-0.809-3.086-4.523-6.125-4c-0.805-1.611-2.566-1.809-4.129-1.947c-1.48,1.527-3.617-0.664-4.902,1.234
			c-0.996,1.006-1.086,2.332-1.473,3.568l-0.328-0.379c-1.238-1.148-3.23-1.617-4.797-0.904c-1.762-0.096-2.996,1.004-4.328,1.855
			c-2.09,2.809-5.273,5.428-3.988,9.477c0.711,1.232,2.238,1.756,3.184,2.703c0.57,0.48,1.473,0.48,1.949,0.957
			c-1.664,0.428-2.949,1.852-4.133,3.051c-1.145,1.518-0.242,3.758-0.332,5.373c2.285,1.141,1.082,3.951,2.938,5.375
			c1.434,1.434,2.949,3.289,5.133,3.43c1.098,0.57,1.855-0.621,2.855-0.094c-1.094,4.377-2.422,8.705-3.184,13.229
			c-0.145,0.76-0.336,1.523-0.809,2.041c-2.332-3.988-6.844-7.752-4.648-12.893c1.035-4-1.859-6.805-4.328-9.377h-0.344
			c0.957,2,0.102,4.328-0.137,6.43c-0.188,1.139,0.336,2.424,0.48,3.424c-0.859-1-1.953-1.76-2.617-2.854
			c-3.137-5.668,3.469-10.234,1.332-15.898c-0.852-2.953-4.09-5.236-6.797-5.713c1.191,2.572,2.379,5.141,2.043,8.332
			c-0.426,3.24-0.945,6.141-0.23,9.279c-4.098-4.33-8.227-8.855-10.742-13.943c3.707-3.855,8.5-5.568,13.109-7.328
			c9.836-3,12.543-14.092,19.293-20.803c0.426-0.377,0.758-0.805,1-1.145c-9.555,0.432-14.688,10.096-20.621,16.807
			c-0.477,0.664-1.234,1.086-1.949,0.9c0.527-1.379,1.238-2.664,1.852-4c4.086-7.891,2.047-17.416-3.09-24.176l-0.57-0.375
			c-2.656,3.568-0.855,8.756-0.234,12.939c0.762,6.049,2.234,12.473-2.145,17.332c-0.75,1.096-1.75,2.18-2.848,2.52l0.434-2.051
			c2.562-3.568,1.945-8.521,0.566-12.473c-3.043,3.764-4.559,8.812-3.996,13.711c1,2.24-0.609,3.949-2.035,5.521
			c-0.859-1.621-1.098-3.521-1.621-5.281h-0.188c-0.477,2.285-1.094,4.992-0.383,7.189c-0.711,0.66-1.469,1.191-2.277,1.615
			c-1.52,0.859-2.898,2.469-4.422,2.955c0.711-1.004,1.668-1.723,2.52-2.623c3.281-2.904,2.289-8.332,2.148-11.992
			c-2.289,1.191-4.473,2.855-6.375,4.709c-2.184,1.996-2.086,5.523-1.855,7.996c0.809,4.523-4.465,7.238-7.035,9.711l-0.141-0.145
			c-0.992-5.664-0.09-12.572,0.141-18.703c1.434-0.48,3.617,0.047,4.992-0.953c2.281-1.043,2.707-3.615,2.996-5.898
			c1.137,1,2.328,2.471,4.18,2.047c0.906-0.908,2.281-0.531,3.238-1.287c0.801-1.861,2.938-3.145,3.512-5.145
			c1.375-1.9,1.422-4.512,1.469-6.852c-0.473-1.088-1.805-1.66-2.848-2.137c0.758-0.48,1.426-1.051,2.043-1.719
			c0.953-1.42,1.66-3.656,0.711-5.377c-0.574-2.904-1.469-5.611-3.176-7.996c-1.195-1.379-2.809-1.715-4.375-2.184
			c-3.047-0.336-5.707,2.137-7.176,4.711h-0.242c-0.039-1.191,0.102-1.996-0.09-3.1c-0.383-1.375-1.664-2.184-2.855-2.855
			c-2.461,0-4.793,0.057-7.176-0.328c-2.848,0.477-5.508,1.9-7.41,4.24c-1.613,2.088-1.043,5.133,0.336,7.184
			c0.188,0.805,1.375,1.049,1.137,1.943c-0.902-0.184-1.754-0.566-2.758-0.566c-1.332,0.383-2.137,1.096-3.035,2.139
			c0.141,2.717-2.801,4.428-1.711,7.184c0.242,0.816,1.188,1.434,0.664,2.434c-0.238,2.764,3.09,2.951,3.895,5.234
			c1.285,1.098,3.469,0.664,4.754,0.145c-0.238,1.184-0.574,2.617,0.383,3.613c1.711,1.672,2.891,4.238,5.223,4.951
			c-0.148,1.76,0.383,3.947-0.477,5.336c-2.461-0.195-4.605-1.244-6.699-2.283c-5.605-3.717-6.742-10.477-11.875-14.713l-0.434,0.34
			c0.434,4.652,0.574,9.416,3.523,13.033c0,0,1.973,5.379,6.945,5.604l0.465-0.033c2.898-0.523,5.699-0.664,8.074,1.049
			c0.762,4.469-0.367,10.068-0.891,14.496c-0.621-0.859-1.148-3.32-1.484-4.324c-0.758-3.381-2.199-4.744-3.625-7.795l-0.711-0.713
			c-1.145,1.432-0.637,4.428-0.922,6.283c0.145,4.617,2.691,5.996,5.828,9.424c0.57,1.713,0.617,3.949,0.242,5.805
			c-3.141-6.049-9.418-10.424-14.727-14.043c0,0-1.246,0.08-2.285-3.9c-1.66-5.141-5.512-9.369-8.553-13.945
			c3.992-7.139,6.123-15.088,7.889-23.18c0.52-1.895,3.078-2.164,3.84-3.975c1.258-2.842,2.477-6.752,0.711-9.701
			c-0.141-0.287-0.188,0.045-0.371,0c-0.48,3.137-2.832,8.859-3.73,8.096c0,0-0.715-1.391,0.414-3.656
			c1.129-2.271,1.922-6.234,1.809-10.088C204.479,9.064,202.562,6,202.562,6c0.109,4.988-2.602,8.389-2.938,10.992
			c-0.34,2.609,0.141,7.938,0.141,7.938c-0.379,0.879-0.52,0.127-0.68-0.461c-0.156-0.588-0.105-1.424-0.273-1.695l-1.475-4.518
			c-2.416-5.932-9.533-8.25-11.939-8.955h-0.336c1.391,4.629,8.359,13.373,11.402,18.709c0.805,1.943,2.137,3.611,1.896,5.943
			c-0.711,6.568-2.607,12.611-6.268,17.939c-1.191-1.947-1.812-4.188-2.377-6.375l0.564-3.568c0.336-5.805-5.932-7.76-9.451-10.943
			h-0.332c-0.76,2.803,0.24,6.279,0.904,9.23c0.664,3.568,3.611,5.42,6.363,7.328c0.52,2.332,1.572,4.469,2.615,6.613
			c-1.707,2.34-2.947,4.902-4.752,7.191c-0.947-1.096-1.523-2.381-2.088-3.664c-2.424-4.045-7.32-5.1-11.836-5.477
			c1.385,4.428,4.473,9.617,9.461,10.76c0.803,0.373,1.996,0.092,2.611,0.664c-3.279,4.709-7.32,9.037-12.072,12.32l-0.236-0.184
			c0.525-1.049,1.189-2.045,1.949-3c1.471-2.668,1.191-6.045-0.232-8.66c-0.527-0.672-0.924-1.691-1.951-1.713
			c0.57,8.369-2.045,15.656-6.938,21.938c-1.332,1.471-2.756,3.428-4.559,4.572c-1.049-2.053-0.385-4.67-0.572-7.24
			c0.951,0.244,1.855-0.232,2.615-0.896c4.229-6.049,3.988-14.896,2.377-21.939c-0.336-0.533-0.145-1.48-1-1.572
			c-0.664,5.568-1.854,10.943-3.66,16.084c-0.432,0.711-0.521,1.855-1.232,2.043c-1.477-7.043-0.713-15.516-0.244-22.939
			c0.859,1.668,2.236,2.668,3.76,3.668c1.617,0.523,3.324,0.049,4.797-0.477c2.188-1.191,2.471-3.855,4.656-5.236
			c0.807-2.326,0.852-5.23,0.807-7.664c-0.375-0.855-0.852-1.855-1.807-2.279c0.428-0.336,0.955-0.287,1.471-0.484
			c1.852-0.711,1.664-2.939,1.953-4.66c1.275-3.42-2.141-5.752-2.756-8.803c-0.473-2.088-2.709-2.717-4.465-3.191
			c-1.951-0.426-3.707,0.523-4.992,1.814c-0.523-0.814,0.045-2.051-0.477-2.855c-1.23-1.48-2.615-3.287-4.559-3.764
			c-1.709-1.809-4.137-0.188-6.133-0.996c-2.088-1.477-3.469,1.043-4.939,1.904c-2.896,1.424-1.66,4.896-1.473,7.324
			c-0.328-0.236-0.664-0.473-1-0.668c-2.516-0.518-5.84-0.713-7.787,1c-1.045,1.576-1.9,3.096-1.809,4.908
			c-0.947,2.332-2.088,5.23-0.328,7.555c1.137,2.633,3.988,3.576,6.695,3.533c-2.467,2.283-1.283,5.711-1.234,8.562
			c1.379,2.236,3.516,5.473,6.512,5.949c1.943,0.623,4.604,0.475,6.031-1.049c2.473-0.375,3.184-3.137,4.561-4.756
			c0.336,0.717,0.287,1.713,0.477,2.377c-0.568,5-0.285,10.664-1.141,15.664H154.7c-1-1.385-1.188-3.289-2.043-4.812
			c-1.713-3.184-5.373-4.141-8.553-4.896c-1.473-0.287-3.283-0.908-4.561-0.34l2.277,2.381c3.66,1.668,6.844,4.523,9.6,7.668
			c3.463,3.658,3.703,8.559,3.752,13.555c-0.049,1.1,0.096,2.332-0.568,3c-5.088-0.375-9.596-2.471-13.355-5.707
			c-1.705-1.289-0.613-2.9-0.9-4.572c-0.764-6.137-1.852-12.801-7.885-15.984l-0.096,0.092c3.18,5.713,1.568,13.52,4.893,18.992
			c-5.324-2.951-10.641-6.859-14.82-11.66c2.229-2.715,4.604-4.711,7.312-7.191c3.039-3.424,3.992-7.848,2.852-12.469l-1.283,0.092
			c-5.508,1.48-8.74,7.145-9.217,12.469c0.141-3.137,0.859-6.279,0.904-9.611c-0.523-2.137,0.188-4.953-1.049-6.709
			c-2.895,4.096-4.131,9.713-3.035,14.607c0,1.904,0.9,3.572,0.564,5.477c-1.805-2-3.369-4.145-4.225-6.371
			c-0.713-5.572-1.568-11.613-7.084-15c-2.328-1.145-4.752-2.285-7.168-2.857c5.836,4.145,8.928,10.756,10.119,17.285
			c-2.428-2.672-5.799-3.904-9.551-3.332c-2.377,0.615-4.609,2.656-5.705,4.568c1.621,0,3.328-0.48,5.137-0.434
			c7.316-0.475,14.012,2.477,18.1,8.904c-2.279,9.701-9.08,17.744-11.264,27.416c-0.52-2.863-0.145-5.955,0.572-8.576
			c1.996-5.711,3.799-13.135-0.717-18.176c-0.375,3.045-0.896,6.236-2.131,9.037c-1.996,4.475-2.092,9.902-0.812,14.711
			c1.332,3.996-0.473,7.996-0.664,11.805l-0.473,2.137c-0.195,4.574-0.572,9.287-0.572,14.043c-1.99-2.52-4.131-5.469-3.664-8.9
			c0.861-5.232,2.385-10.939,0.48-16.229c-1.375,1.094-1.947,2.9-2.848,4.381c-1.568,2.668-1.145,6.188-1.049,9.137
			c-1.615-4.045-2.852-8.521-3.279-13.137c2.76,0.619,4.561-1.852,6.844-2.76c0.664-0.859,1-1.855,1-2.947
			c2.137-1.385,1.709-4.572,1.285-6.762c-1-1.143-0.389-2.707-1.285-3.764c-0.807-1.236-2.188-1.236-3.424-1.471
			c1.285-0.568,2.424-1.713,2.756-3.098c1.473-3.475-0.947-6.947-3.184-9.371c-2.141-0.527-2.943-2.812-5.137-3.092
			c-1.611-1.432-3.65-1.004-5.604-1.236c-3.137,1.713-3.988,5.141-4.32,8.229l-0.24-0.232c0-3.195-2.992-5.668-5.463-7.191
			c-2.373,0.523-4.656,0.852-7.076,0.572c-3.041,1.283-5.133,4.615-6.037,7.619c-0.619,3.275,2.568,4.943,4.422,6.844
			c-1.904,0.197-3.854,0.389-5.465,1.283c-2.66,0.816-2.66,3.625-3.656,5.572c0,1.385,0.141,2.996,1.279,4
			c0,3.189,2.236,5.141,4.797,6.664c2.092,0.232,4.088,1.854,6.367,0.76c0.861-0.188,1.141-1.471,1.949-1.471v3.988
			c1.096,2.283,3.328,3.482,5.795,3.576c1.664,0.906,3.613,0.096,5.373,0.668c0.9-0.816,2.043,0.139,2.848-0.816
			c1.283-1.285,3.088-1.045,3.992-2.855l1.141,5.287c0.287,1.564,1.234,2.996,1.375,4.568l-0.023,0.096c0,0-0.477-0.484-1.748-1.275
			c-1.26-0.793-2.691-0.957-4.117-1.424c-1.424-0.477-6.184-1.9-6.184-1.9s1.109,1.424,1.271,1.9
			c0.16,0.467,2.064,2.699,4.121,3.971c2.061,1.268,7.764,3.332,7.764,3.332l2.695,5.713c0,0-6.18-2.857-10.299-4.125
			c-4.121-1.275-3.645-2.387-5.553-4.451c-1.9-2.064-6.336-3.648-10.131-4.129c-3.809-0.471-6.66-1.428-9.037-3.643
			c-2.379-2.229-4.119-3.656-4.119-3.656s2.055,4.127,6.176,7.619c4.123,3.492,6.816,4.449,8.404,4.924
			c1.584,0.473,3.639,2.697,3.639,2.697s-6.02,1.107-8.555,2.535c-2.533,1.432-3.488,2.389-6.34,1.432
			c-2.85-0.951-3.48-1.748-3.48-1.748s-3.809-4.6-6.5-6.5c-2.691-1.912-4.916-3.504-10.141-3.66c0,0,1.428,2.545,2.061,3.812
			c0.633,1.271,3.012,5.721,5.703,7.145c2.697,1.432,4.598,2.219,7.133,1.592l1.264,0.947c0,0-3.645,0.793-5.859,0.152
			c-2.221-0.627-4.596-1.9-6.816-1.9c-2.217,0-2.691,1.9-2.691,1.9s2.219-0.783,3.488-0.316c1.268,0.484,5.07,3.336,8.234,4.129
			c3.172,0.791,4.598,0.477,7.293-0.477c2.695-0.955,3.012-1.432,4.275-1.432c0,0-2.219,2.385-3.168,3.332
			c-0.951,0.955-3.488,2.699-3.963,5.08c-0.473,2.379-0.312,4.604-0.312,4.604s2.057-4.604,3.799-5.08
			c1.74-0.48,6.812-3.332,7.605-4.756c0.795-1.432,1.271-5.867,2.531-6.344c1.271-0.48,5.396-1.271,8.721-0.955
			c3.328,0.314,8.875,1.742,11.727,3.02c0,0-5.387,2.367-6.975,3.484c-1.58,1.111-3.484,3.646-5.705,5.391
			c-2.215,1.748-6.34,3.812-9.348,4.285c0,0,5.705,0.488,9.188-1.113c3.488-1.58,11.572-6.184,14.584-6.66
			c3.008-0.479,6.809-0.156,9.189,1.27c0,0,7.287,5.391,11.566,9.047c4.277,3.656,7.422,5.268,7.422,5.268l0.283,0.244
			c-6.656-0.527-12.492-1.26-18.188-4.688c-0.193,0.145-1.025-0.473-1.025-0.141c2.992,8.717,13.617,9.469,21.645,10.416
			c7.316,2.336,17.881,9.314,24.393,13.689c-5.088-0.949-10.125,1.047-14.832-1.281l-0.236,0.238
			c4.377,5.898,11.264,7.23,18.58,6.75c6.604,0.91,11.672,6.703,17.088,10.512c4.561,4.133,10.141,8.465,13.943,13.547l-1.451,0.125
			c-5.553,0.023-11.061-0.266-16.121-2.082c-2.18-2.93-1.879-7.039-4.436-9.812c-2.004-3.172-5.592-5.539-9.092-6.438
			c-0.275,0.203-0.707,0.078-0.883,0.461c1.691,2.66,4.658,4.766,5.371,7.836c0.592,2.266,2.5,4.016,4.072,5.723
			c-4.832-2.703-10.275-4.91-15.301-7.668c-2.307-0.93-7.395-2.488-7.395-2.488c-10.521-3.574-8.725-7.516-18.297-14.176
			c-3.188-1.609-8.008-4.863-11.691-4.223l-0.889,0.457c1.775,3.609,4.203,7,7.977,8.789l8.279,3.902
			c-7.801-0.949-20.752-1.375-28.691-0.859c0,0-0.889-0.129-2.789-1.414c-4.566-3.891-7.291-10.105-5.363-16.348
			c1.871-4.188,6.312-6.592,7.508-11.1c0.789-3.068,1.619-6.553,1.545-9.631l-0.793,0.275c-5.439,1.947-10.703,6.084-10.852,12.291
			c-0.443,3.016,1.236,6.232-0.801,8.916c-0.176,0.273-0.443,0.145-0.732,0.109c-0.672-1.289-0.482-2.828-0.654-4.312
			c-0.561-4.84-1.557-7.252-6.689-10.275c-3.719-2.197-12.668-3.934-12.668-3.934s6.633,5.098,10.861,9.072
			c4.828,4.529,5.711,8.117,5.711,8.117c0.213,1.668,1.268,3.967,1.873,5.502c1.967,4.105,1.234,6.098,3.592,10.105
			c-0.473,0.379-1.109-0.367-1.521-0.508c-6.066-4.977-10.623-12.697-12.986-19.924c-0.861-0.004-1.209,0.959-1.66,1.531
			c-1.549,3.844-0.289,8.213,1.988,11.639c1.592,2.344,4.051,3.496,5.902,5.625l-0.264,0.207c-3.695-1.531-7.223-3.285-10.488-5.625
			c0.713-3.23-0.275-6.27-1.924-8.953c-1.176-0.564-2.398,0.051-3.428-0.164c1.809-0.695,3.777-2,3.928-4.137
			c-0.1-3.656-1.814-7.016-5.211-8.66c-2.088-0.963-4.717-1.795-6.844-0.363c-1.549,1.396-1.48,3.656-2.266,5.484
			c-0.295-2.82-0.004-6.137-2.5-8.109c-2.65-1.455-6.879-1.715-9.607-0.062c-1.771,1.275-4.148,2.344-4.332,4.764
			c-0.684,0.875-1.051,2.031-1.08,3.084c0.592,1.076,0.896,2.592,1.896,3.48c-1.936-0.277-3.592,0.443-5.191,1.451
			c-1.016,1.32-2.076,3.016-1.609,4.752c0.141,1.26-0.912,2.477-0.08,3.539c-0.275,1.594,0.061,3.207,1.484,4.098
			c1.344,1.211,2.676,2.523,4.625,2.598c1.639-0.09,3.248-0.336,4.646-1.273c-1.051,2.074-1.99,4.801-1.188,7.34
			c1.221,2.242,3.705,3.492,6.033,3.234c1.012-0.453,1.676,0.777,2.791,0.668c2.961,0.871,4.016-2.891,7.023-1.965
			c0.717-0.875,2.125-0.605,2.369-1.875c1.043-2.801,0.188-5.301-1.275-7.531l0.107-0.078c1.795,1.793,3.387,4.562,6.119,4.492
			c1.684-0.469,3.252-1.625,4.285-3.086c2.256,0.789,4.475,2.199,6.74,3.32l0.275,0.52c-3.943,0.543-7.949,0.84-11.133,3.965
			c-1.344,1.332-2.787,2.598-4.416,3.41c-1.576,0.438-3.232,0.68-4.736,1.273c1.953,1.715,5.354,1.723,7.889,1.254
			c4.947-1.383,9.084-4.875,13.664-7.223c2.451,0.289,4.404,1.574,5.801,3.555c-3.172,5.047-9.008,8.336-14.438,9.816
			c-7.359-0.523-14.979-3.668-22.291-2.027c-2.268,0.543-5.061,0.695-6.5,2.785c4.928,0.434,10.393-0.086,14.904,1.84
			c-4.348,0.348-9.656,1.551-11.697,5.91c0.057,0.34-0.279,0.781,0.125,1.023c2.111-0.902,4.199-1.949,6.561-2.109
			c6.398,0.465,12.723,1.246,18.084-2.488c1.668-1.195,3.516-1.887,5.199-3.176c-0.965,5.398-6.152,9.68-11.484,10.734
			c-3.127,1.355-6.695,3.668-7.379,7.09c3.348-3.254,8.135-0.438,11.807-2.789c5.881-2.859,8.26-8.957,9.996-14.789l0.092,0.012
			c-0.832,4.695,0.137,9.117,2.301,13.109c0,0,0.619,4.137,0.961,6.512c0.336,2.375,1.92,4.422,1.92,4.422
			c0.795-1.363,1.928-7.367,1.023-15.527c-0.908-8.156-0.908-9.402,1.355-13.258c2.264-3.848,6.9-4.871,6.9-4.871
			c-1.137,1.137-3.852,6.352-4.863,9.289c-1.025,2.945,1.244,9.746,3.051,13.262c1.812,3.512,1.133,11.219,1.133,11.219
			s4.076-6.578,5.088-10.543c1.02-3.965-0.449-8.039-2.26-13.027c-1.812-4.988-0.453-6.684,0.791-8.273
			c1.248-1.582,4.881-2.652,4.881-2.652c6.229-2.09,11.371-2.113,18.047-1.492c-3.244,1.348-6.328,3.008-8.371,6.219
			c-1.256,2.414-3.812,4.164-5.852,5.891c-1.072,0.605-2.492,0.84-3.273,1.812c10.93,4.281,15.293-7.352,24.324-10.301
			c4.617-1.516,11.457,0.574,15.596,2.117c2.941,1.34,6.156,2.332,8.697,4.539c-1.664,0.191-3.416,0.199-5.023,0.586
			c-7.438,2.375-13.08,7.496-21.434,7.898c-1.146,0.301-2.035,0.957-2.016,0.969c9.275,3.145,21.301,1.578,29.324-3.43
			c2.08-1.688,4.508-3.238,7.336-2.52c3.225,1.379,6.188,3.379,9.5,4.516c6.145,1.863,10.145,2.707,16.801,2.836
			c0,0,3.32,0.355,3.996,0.691c6.092,1.336,10.207,7.754,13.439,12.793h0.336c1.516-4.707,4.365-9.137,8.213-12.562
			c10.645-7.57,13.023-6.707,25.277-10.418c2.855-0.812,7.535-1.824,10.086-1.504c6.93,1.863,12.543,7.051,19.387,9.289
			c4.75,1.516,10.551,0.859,14.445-2.102c0.703-0.57,1.941-1,2.078-1.898c-3.789,0.477-7.547,0.711-10.965-0.816
			c-5.652-3.285-11.836-5.418-18.676-5.945l0.195-0.23c5.699-0.719,26.645-3.031,32.152-1.027c9.027,1.043,20.617,2.375,27.27-4.668
			c0.051-0.332,0.523-0.766,0.094-1.043c-2.277,0.184-4.562,0.664-6.836,0.473c-4.895,1.949-10.973,0.238-15.824,0.328
			c3.324-1.281,6.699-2.562,10.023-3.848c5.609-3.34,12.453-1.816,17.438,1.566c3.473,3.234,4.512,8.473,2.996,13.043
			c-0.664,1.23-1.191,2.852-2.426,3.516c-5.18,0.48-10.355,2.477-13.113,7.43c-1.043,2.281-2.234,4.711-2.375,7.086
			c7.129,0.48,13.73-3.848,16.969-10.188c0.043,4.289,0.754,8.285,3.078,11.898c0.715,0.77,1.332,1.859,2.281,1.816
			c-0.711-7.473-3.703-14.895-1.566-22.703c0.953-3.902,0.281-7.137-1.043-10.523c4.23,2.855,8.168,6.762,9.355,11.668
			c-1.742,8.406,0.699,12.836,0.699,12.836l1.141,1.914c2.375,3.785,5.895,6.672,9.93,8.262c3.605-14.797-6.539-19.203-8.578-21.469
			c-2.039-2.262-2.039-5.215-2.039-5.215l2.941,1.719c2.562,1.613,5.18,3.094,8.121,3.758c7.367,2.48,13.973-1.375,20.38,3.336
			c2.848,1.477,4.133,4.52,5.703,6.852C362.516,194.623,362.184,191.955,360.992,189.533"/>
	</g>
</g>
</svg>
