<?xml version="1.0" encoding="UTF-8"?>
<svg version="1.1" xmlns="http://www.w3.org/2000/svg" width="200" height="200">
<path d="M0 0 C5.70703225 4.89918751 10.11312545 10.40982931 14.00390625 16.828125 C14.47699219 17.60800781 14.95007813 18.38789062 15.4375 19.19140625 C23.18137542 33.23148899 24.0768691 50.37824041 20.0390625 65.703125 C15.28206027 80.06388646 5.792347 90.36175132 -4.7890625 100.81640625 C-5.69811844 101.72263229 -6.60717438 102.62885834 -7.54377747 103.56254578 C-9.93260654 105.94383571 -12.32737407 108.31906018 -14.72357178 110.69293213 C-17.15856761 113.10736573 -19.58783365 115.52754944 -22.01757812 117.94726562 C-25.57530223 121.4891796 -29.13603081 125.02804049 -32.69995117 128.5637207 C-35.80565948 131.64495927 -38.90583957 134.73139305 -41.99609375 137.828125 C-45.01692708 140.84895833 -48.03776042 143.86979167 -51.05859375 146.890625 C-51.79758911 147.63082886 -51.79758911 147.63082886 -52.55151367 148.38598633 C-53.91922289 149.75138406 -55.29531006 151.10837464 -56.671875 152.46484375 C-59.1793083 155.01441879 -61.41910789 157.69459896 -63.6640625 160.47265625 C-64.10363281 160.91996094 -64.54320313 161.36726562 -64.99609375 161.828125 C-65.65609375 161.828125 -66.31609375 161.828125 -66.99609375 161.828125 C-66.99609375 162.488125 -66.99609375 163.148125 -66.99609375 163.828125 C-68.5 165.30859375 -68.5 165.30859375 -70.55859375 167.015625 C-74.58284622 170.43014225 -78.3179938 174.04657849 -81.99609375 177.828125 C-85.8953408 176.50093054 -88.29151906 174.91086644 -91.20043945 172.01196289 C-91.99509109 171.22676773 -92.78974274 170.44157257 -93.60847473 169.63258362 C-94.45439682 168.78058884 -95.30031891 167.92859406 -96.171875 167.05078125 C-97.05586472 166.16966171 -97.93985443 165.28854218 -98.85063171 164.38072205 C-100.72120005 162.51219504 -102.58844338 160.64093118 -104.45092773 158.7644043 C-106.3439436 156.85779754 -108.24344149 154.95810238 -110.15014648 153.06518555 C-112.91559384 150.31846095 -115.67023256 147.56132893 -118.421875 144.80078125 C-119.2617244 143.96700455 -120.10157379 143.13322784 -120.96687317 142.27418518 C-128.60558361 134.54564189 -135.90093271 126.0111817 -139.99609375 115.828125 C-140.36734375 114.95542969 -140.73859375 114.08273438 -141.12109375 113.18359375 C-146.81678065 97.77755176 -145.57089704 79.52993187 -138.80859375 64.703125 C-130.97254009 50.08677341 -117.87394081 38.97997043 -102.21484375 33.5 C-98.77644425 32.11256289 -98.77644425 32.11256289 -97.5 28.859375 C-97.18933594 27.6940625 -96.87867188 26.52875 -96.55859375 25.328125 C-92.36781876 12.04364218 -82.89406231 1.06300753 -70.78125 -5.7890625 C-47.16183672 -17.51595212 -21.43416962 -15.53767706 0 0 Z " fill="#7B6BB1" transform="translate(160.99609375,17.171875)"/>
<path d="M0 0 C5.70703225 4.89918751 10.11312545 10.40982931 14.00390625 16.828125 C14.47699219 17.60800781 14.95007813 18.38789062 15.4375 19.19140625 C23.18137542 33.23148899 24.0768691 50.37824041 20.0390625 65.703125 C14.1787997 83.3944844 0.89862678 95.2036585 -11.99609375 107.953125 C-13.5499454 109.4969267 -15.1033348 111.04119382 -16.65625 112.5859375 C-20.4308835 116.33871753 -24.2111894 120.08570545 -27.99609375 123.828125 C-29.40850383 119.59089477 -27.87520412 116.98350727 -26.2265625 112.94140625 C-24.35782486 108.25575374 -23.26466344 103.88355452 -22.99609375 98.828125 C-22.93164062 97.673125 -22.8671875 96.518125 -22.80078125 95.328125 C-22.43096816 85.24002639 -24.17650656 76.47586913 -26.99609375 66.828125 C-27.33740201 65.49681078 -27.67548095 64.16457415 -27.99609375 62.828125 C-28.65609375 62.828125 -29.31609375 62.828125 -29.99609375 62.828125 C-32.99609375 57.078125 -32.99609375 57.078125 -32.99609375 54.828125 C-34.48109375 54.333125 -34.48109375 54.333125 -35.99609375 53.828125 C-35.99609375 53.168125 -35.99609375 52.508125 -35.99609375 51.828125 C-36.65609375 51.828125 -37.31609375 51.828125 -37.99609375 51.828125 C-39.1875 50.5078125 -39.1875 50.5078125 -40.55859375 48.703125 C-46.49818056 41.58424977 -54.33204608 37.73991057 -62.99609375 34.828125 C-63.68316406 34.57297119 -64.37023437 34.31781738 -65.078125 34.05493164 C-72.15867258 31.62528986 -78.68588082 31.47203587 -86.12109375 31.640625 C-87.26835938 31.65416016 -88.415625 31.66769531 -89.59765625 31.68164062 C-92.39764333 31.71664046 -95.19660592 31.76573641 -97.99609375 31.828125 C-96.37106088 17.29310878 -87.07847152 6.30669436 -75.99609375 -2.609375 C-52.6226314 -18.76176768 -22.45403363 -16.27697874 0 0 Z " fill="#EC145B" transform="translate(160.99609375,17.171875)"/>
<path d="M0 0 C0.96421875 0.3403125 1.9284375 0.680625 2.921875 1.03125 C11.46830627 4.24158459 18.91321124 9.11590025 25 16 C25 16.66 25 17.32 25 18 C25.66 18 26.32 18 27 18 C33 24.9375 33 24.9375 33 29 C33.66 29 34.32 29 35 29 C42.45485218 42.90737129 43.33468388 61.8633766 39 77 C38.01453001 78.67529898 37.01619605 80.34315862 36 82 C35.74803871 84.70953551 35.74803871 84.70953551 36 87 C35.34 87 34.68 87 34 87 C33.87431641 88.10408203 33.87431641 88.10408203 33.74609375 89.23046875 C32.84422013 92.57826141 31.54559843 93.92818668 29.0625 96.3125 C28.35222656 97.00988281 27.64195313 97.70726562 26.91015625 98.42578125 C25 100 25 100 23 100 C23 92.08 23 84.16 23 76 C20.03 76 17.06 76 14 76 C11.23834501 75.37052481 8.72262382 74.71286485 6.0625 73.8125 C5.36938721 73.58328857 4.67627441 73.35407715 3.9621582 73.11791992 C-12.51362234 67.52103142 -24.22621568 57.42705965 -32.25 41.9375 C-38.68519123 28.54625349 -39.47624836 13.58235147 -37 -1 C-30.56923629 -7.43076371 -7.4136518 -2.96546072 0 0 Z " fill="#4C2783" transform="translate(98,51)"/>
<path d="M0 0 C0.96421875 0.3403125 1.9284375 0.680625 2.921875 1.03125 C11.46830627 4.24158459 18.91321124 9.11590025 25 16 C25 16.66 25 17.32 25 18 C25.66 18 26.32 18 27 18 C33 24.9375 33 24.9375 33 29 C33.66 29 34.32 29 35 29 C42.45485218 42.90737129 43.33468388 61.8633766 39 77 C38.01453001 78.67529898 37.01619605 80.34315862 36 82 C35.74803871 84.70953551 35.74803871 84.70953551 36 87 C35.34 87 34.68 87 34 87 C33.87818359 88.10408203 33.87818359 88.10408203 33.75390625 89.23046875 C32.83305262 92.61329376 31.47670733 93.93451218 28.9375 96.3125 C28.20402344 97.00988281 27.47054687 97.70726562 26.71484375 98.42578125 C26.14894531 98.94527344 25.58304688 99.46476562 25 100 C24.67 99.01 24.34 98.02 24 97 C25.25 94.8125 25.25 94.8125 27 93 C27.99 93 28.98 93 30 93 C30.95928532 90.12214405 31.77029018 87.24023193 32.5625 84.3125 C32.83191406 83.31863281 33.10132813 82.32476562 33.37890625 81.30078125 C33.58386719 80.54152344 33.78882813 79.78226562 34 79 C34.66 79 35.32 79 36 79 C36.06058594 78.30132812 36.12117188 77.60265625 36.18359375 76.8828125 C36.30927734 75.51769531 36.30927734 75.51769531 36.4375 74.125 C36.55931641 72.76761719 36.55931641 72.76761719 36.68359375 71.3828125 C37 69 37 69 38 67 C38.68146666 57.07864711 37.57523376 46.91251032 37 37 C36.34 37 35.68 37 35 37 C34.566875 35.88625 34.13375 34.7725 33.6875 33.625 C32.30088881 29.82487666 32.30088881 29.82487666 29 28 C28.855625 27.34 28.71125 26.68 28.5625 26 C28.376875 25.34 28.19125 24.68 28 24 C27.38125 23.731875 26.7625 23.46375 26.125 23.1875 C24 22 24 22 22.6875 18.625 C20.48514998 13.89402589 18.56546427 13.28273213 14 11 C13.505 10.01 13.505 10.01 13 9 C11.02111039 8.27306096 9.02045442 7.60183749 7 7 C7 6.34 7 5.68 7 5 C5.824375 4.71125 4.64875 4.4225 3.4375 4.125 C0.80860141 3.4769673 -1.73023521 2.76577361 -4.3125 1.9375 C-14.32122014 -0.60708987 -24.74706369 -0.11577971 -35 0 C-35 -0.66 -35 -1.32 -35 -2 C-23.25229169 -3.67824404 -11.1773256 -4.47093024 0 0 Z " fill="#721A6E" transform="translate(98,51)"/>
<path d="M0 0 C3.36179774 1.44077046 5.59156268 3.24750021 8 6 C8 6.66 8 7.32 8 8 C8.76699219 8.21269531 9.53398437 8.42539063 10.32421875 8.64453125 C14.68523426 10.85368801 15.37465459 14.55047019 17.0625 18.93359375 C18.17783303 22.5816622 18.42756606 25.23741868 18 29 C18.66 29 19.32 29 20 29 C21.14710456 32.44131369 21.1294635 35.12159989 21.1328125 38.75 C21.13424759 39.73178223 21.13424759 39.73178223 21.13571167 40.73339844 C21.13639122 42.11523535 21.13455261 43.49707549 21.13037109 44.87890625 C21.1250196 46.99226054 21.13032361 49.10540231 21.13671875 51.21875 C21.13605793 52.56250047 21.13477668 53.9062508 21.1328125 55.25 C21.13168457 56.47203125 21.13055664 57.6940625 21.12939453 58.953125 C21 62 21 62 20 65 C21.65 65 23.3 65 25 65 C25 63.68 25 62.36 25 61 C26.95309888 59.59886384 28.95708818 58.26660533 31 57 C31.66 56.01 32.32 55.02 33 54 C33.66 54 34.32 54 35 54 C35.33 53.01 35.66 52.02 36 51 C36.66 51 37.32 51 38 51 C38 50.34 38 49.68 38 49 C38.99 49 39.98 49 41 49 C41 47.68 41 46.36 41 45 C44.75 43 44.75 43 47 43 C47.33 41.68 47.66 40.36 48 39 C48.99 39.33 49.98 39.66 51 40 C46.44374076 45.32479474 41.72925796 50.40981073 36.75390625 55.34375 C36.09792953 55.99831177 35.44195282 56.65287354 34.76609802 57.32727051 C32.70059855 59.38723823 30.63162405 61.44367366 28.5625 63.5 C27.14885566 64.9086205 25.73544214 66.31747267 24.32226562 67.7265625 C20.88416851 71.15372133 17.44295344 74.57772019 14 78 C12.58758992 73.76276977 14.12088963 71.15538227 15.76953125 67.11328125 C17.63826889 62.42762874 18.73143031 58.05542952 19 53 C19.06445312 51.845 19.12890625 50.69 19.1953125 49.5 C19.56512559 39.41190139 17.81958719 30.64774413 15 21 C14.65869174 19.66868578 14.3206128 18.33644915 14 17 C13.34 17 12.68 17 12 17 C9 11.25 9 11.25 9 9 C8.01 8.67 7.02 8.34 6 8 C6 7.34 6 6.68 6 6 C5.34 6 4.68 6 4 6 C2.61061923 4.03852126 1.2739589 2.03833424 0 0 Z " fill="#CD1F70" transform="translate(119,63)"/>
<path d="M0 0 C0.33 0.66 0.66 1.32 1 2 C1.99 2.33 2.98 2.66 4 3 C3.34 3 2.68 3 2 3 C2 3.66 2 4.32 2 5 C1.34 5 0.68 5 0 5 C-0.226875 5.804375 -0.45375 6.60875 -0.6875 7.4375 C-1.3371875 8.7059375 -1.3371875 8.7059375 -2 10 C-4.625 10.8125 -4.625 10.8125 -7 11 C-7.309375 12.134375 -7.61875 13.26875 -7.9375 14.4375 C-9 18 -9 18 -10 19 C-10.16666667 22 -10.16666667 22 -10 25 C-8.26248381 26.73751619 -5.86020536 26.15015452 -3.49609375 26.17578125 C-2.36236328 26.19962891 -1.22863281 26.22347656 -0.06054688 26.24804688 C2.3273006 26.2905261 4.71537206 26.32203838 7.10351562 26.34179688 C14.13592202 26.51235157 19.02544222 27.29069441 25 31 C26.66025264 31.76409355 28.32559175 32.51744639 30 33.25 C30.763125 33.58515625 31.52625 33.9203125 32.3125 34.265625 C32.869375 34.50796875 33.42625 34.7503125 34 35 C34 35.66 34 36.32 34 37 C35.65 37.33 37.3 37.66 39 38 C39.495 40.475 39.495 40.475 40 43 C39.195625 42.443125 38.39125 41.88625 37.5625 41.3125 C31.70954415 37.42436621 25.78809714 33.93945632 19 32 C18.33170166 31.75741455 17.66340332 31.5148291 16.97485352 31.26489258 C9.86392885 28.81614144 3.34395907 28.6431457 -4.125 28.8125 C-5.27226563 28.82603516 -6.41953125 28.83957031 -7.6015625 28.85351562 C-10.40154958 28.88851546 -13.20051217 28.93761141 -16 29 C-14.67567858 16.91556701 -8.39881601 8.43614408 0 0 Z " fill="#C51E6F" transform="translate(79,20)"/>
<path d="M0 0 C11.31914693 1.78830328 20.9279827 9.80086774 28.00390625 18.44921875 C31.89209726 23.79863057 35.87752448 29.6989008 38 36 C37.625 38.2890625 37.625 38.2890625 37 40 C33.8582069 37.90547127 33.52306827 37.46827573 32.375 34.125 C32.13523438 33.44695313 31.89546875 32.76890625 31.6484375 32.0703125 C31.01899676 30.06065231 30.4868497 28.0484431 30 26 C29.34 26 28.68 26 28 26 C27.67 25.34 27.34 24.68 27 24 C24.03 24 21.06 24 18 24 C18 23.01 18 22.02 18 21 C19.65 21.33 21.3 21.66 23 22 C21.49354062 18.16537613 19.26617447 16.43064146 16 14 C14.29705213 12.71332828 12.62053812 11.38903267 11 10 C11 9.34 11 8.68 11 8 C9.68 8 8.36 8 7 8 C7 7.34 7 6.68 7 6 C6.01 5.67 5.02 5.34 4 5 C4 4.34 4 3.68 4 3 C3.34 3 2.68 3 2 3 C2 2.34 2 1.68 2 1 C1.34 0.67 0.68 0.34 0 0 Z " fill="#DC1E5E" transform="translate(142,8)"/>
<path d="M0 0 C0.66 0.66 1.32 1.32 2 2 C2.66 1.34 3.32 0.68 4 0 C3.12943949 4.66135564 0.61867572 8.38126116 -1.72265625 12.44140625 C-3.22333357 14.9707298 -3.22333357 14.9707298 -3 18 C-3.15847412 18.62487305 -3.31694824 19.24974609 -3.48022461 19.89355469 C-4.04959077 22.20097189 -4.20872293 24.32983195 -4.31640625 26.703125 C-4.35830078 27.60160156 -4.40019531 28.50007813 -4.44335938 29.42578125 C-4.48267578 30.35777344 -4.52199219 31.28976563 -4.5625 32.25 C-4.60568359 33.16652344 -4.64886719 34.08304688 -4.69335938 35.02734375 C-4.93287252 40.3574616 -5.04383444 45.66472212 -5 51 C-10.70499026 40.35068484 -9.35935238 23.82241541 -6 12.59765625 C-4.31748922 8.2270716 -2.28612225 4.08429745 0 0 Z " fill="#8F88AF" transform="translate(25,77)"/>
<path d="M0 0 C-0.3125 1.875 -0.3125 1.875 -1 4 C-4.08888522 6.05925681 -4.70935927 6.2390374 -8.1875 6.125 C-10.0746875 6.063125 -10.0746875 6.063125 -12 6 C-12.0928125 7.1446875 -12.0928125 7.1446875 -12.1875 8.3125 C-13.27723202 11.9169982 -14.78005384 12.13958666 -18 14 C-19.01257797 15.13778923 -19.98967242 16.30773268 -20.9375 17.5 C-23.57136231 20.73588798 -26.08519572 22.41543636 -30 24 C-30.66 23.34 -31.32 22.68 -32 22 C-27.20418436 15.92276272 -22.38210644 11.20140932 -15.875 7.0625 C-15.30185059 6.69777588 -14.72870117 6.33305176 -14.13818359 5.95727539 C-4.41819917 0 -4.41819917 0 0 0 Z " fill="#8479A6" transform="translate(60,51)"/>
<path d="M0 0 C5.79460596 10.04398367 3.63172339 24.49159444 0.8671875 35.16796875 C-0.18512937 38.60458914 -1.42357708 41.7720864 -3 45 C-4.17209676 41.48370972 -3.77164181 39.74796575 -3.125 36.125 C-2.15354303 30.30929785 -1.59851692 24.56299669 -1.24609375 18.6796875 C-1 16 -1 16 0 13 C0.06937062 10.77181559 0.08457084 8.54165476 0.0625 6.3125 C0.05347656 5.13300781 0.04445312 3.95351563 0.03515625 2.73828125 C0.02355469 1.83464844 0.01195312 0.93101563 0 0 Z " fill="#E0779E" transform="translate(180,48)"/>
<path d="M0 0 C0.33 0.66 0.66 1.32 1 2 C1.99 2.33 2.98 2.66 4 3 C3.34 3 2.68 3 2 3 C2 3.66 2 4.32 2 5 C1.34 5 0.68 5 0 5 C-0.226875 5.804375 -0.45375 6.60875 -0.6875 7.4375 C-1.3371875 8.7059375 -1.3371875 8.7059375 -2 10 C-4.625 10.8125 -4.625 10.8125 -7 11 C-7.309375 12.134375 -7.61875 13.26875 -7.9375 14.4375 C-9 18 -9 18 -10 19 C-10.24733137 23.14276875 -10.24733137 23.14276875 -9 27 C-11.31 27 -13.62 27 -16 27 C-13.53581906 16.18107226 -8.22655207 7.42396162 0 0 Z " fill="#CF5580" transform="translate(79,20)"/>
<path d="M0 0 C2.1300936 3.86251332 2.30893504 7.15981835 2.25 11.5 C2.24395752 12.20616455 2.23791504 12.9123291 2.23168945 13.63989258 C2.07373087 22.11317415 1.48675211 29.68464331 -3 37 C-3.25196129 39.70953551 -3.25196129 39.70953551 -3 42 C-3.66 42 -4.32 42 -5 42 C-5.08121094 42.73605469 -5.16242188 43.47210938 -5.24609375 44.23046875 C-6.16694738 47.61329376 -7.52329267 48.93451218 -10.0625 51.3125 C-10.79597656 52.00988281 -11.52945313 52.70726562 -12.28515625 53.42578125 C-13.13400391 54.20501953 -13.13400391 54.20501953 -14 55 C-14.495 53.515 -14.495 53.515 -15 52 C-13.75 49.8125 -13.75 49.8125 -12 48 C-11.01 48 -10.02 48 -9 48 C-8.04071468 45.12214405 -7.22970982 42.24023193 -6.4375 39.3125 C-6.16808594 38.31863281 -5.89867187 37.32476562 -5.62109375 36.30078125 C-5.41613281 35.54152344 -5.21117187 34.78226563 -5 34 C-4.34 34 -3.68 34 -3 34 C-2.95101562 33.33613281 -2.90203125 32.67226562 -2.8515625 31.98828125 C-2.77679688 31.10527344 -2.70203125 30.22226563 -2.625 29.3125 C-2.55539063 28.44238281 -2.48578125 27.57226562 -2.4140625 26.67578125 C-2 24 -2 24 -0.96875 21.78125 C0.48458224 17.60878003 0.20995124 13.56902359 0.125 9.1875 C0.11597656 8.30384766 0.10695312 7.42019531 0.09765625 6.50976562 C0.07419637 4.33972641 0.03832865 2.16982753 0 0 Z " fill="#80176B" transform="translate(137,96)"/>
<path d="M0 0 C0.99 0.33 1.98 0.66 3 1 C-2.77046901 7.8771514 -9.06933674 14.18640629 -15.4375 20.5 C-16.4657298 21.52320139 -17.49372626 22.54663733 -18.52148438 23.5703125 C-21.01164338 26.04957999 -23.50492833 28.52567538 -26 31 C-29 27.125 -29 27.125 -29 26 C-27.02 26 -25.04 26 -23 26 C-23 24.68 -23 23.36 -23 22 C-21.04690112 20.59886384 -19.04291182 19.26660533 -17 18 C-16.34 17.01 -15.68 16.02 -15 15 C-14.34 15 -13.68 15 -13 15 C-12.67 14.01 -12.34 13.02 -12 12 C-11.34 12 -10.68 12 -10 12 C-10 11.34 -10 10.68 -10 10 C-9.01 10 -8.02 10 -7 10 C-7 8.68 -7 7.36 -7 6 C-3.25 4 -3.25 4 -1 4 C-0.67 2.68 -0.34 1.36 0 0 Z " fill="#D44977" transform="translate(167,102)"/>
<path d="M0 0 C4.28282783 0.25193105 6.52200982 0.62370986 9.9375 3.3125 C12 6 12 6 12 10 C12.61875 10.2475 13.2375 10.495 13.875 10.75 C16.38710296 12.22770762 16.76107344 13.43955177 18 16 C18.99 16.33 19.98 16.66 21 17 C21.66 17.99 22.32 18.98 23 20 C23.66 20 24.32 20 25 20 C25.33 21.98 25.66 23.96 26 26 C20.02265091 21.04455862 14.53812065 15.68810448 9.0625 10.1875 C8.18787109 9.31673828 7.31324219 8.44597656 6.41210938 7.54882812 C5.58646484 6.72189453 4.76082031 5.89496094 3.91015625 5.04296875 C3.15871338 4.29039795 2.40727051 3.53782715 1.63305664 2.76245117 C0 1 0 1 0 0 Z " fill="#AFA9C5" transform="translate(48,166)"/>
<path d="M0 0 C9.49405301 5.15766893 16.0626851 16.15003933 20 26 C19.68359375 28.3828125 19.68359375 28.3828125 19 30 C15.8582069 27.90547127 15.52306827 27.46827573 14.375 24.125 C14.13523438 23.44695313 13.89546875 22.76890625 13.6484375 22.0703125 C13.01899676 20.06065231 12.4868497 18.0484431 12 16 C11.34 16 10.68 16 10 16 C6.29948715 13.13508682 5.12394961 10.13474095 3.80859375 5.8046875 C3.02852768 3.63442927 3.02852768 3.63442927 0 2 C0 1.34 0 0.68 0 0 Z " fill="#DD799E" transform="translate(160,18)"/>
<path d="M0 0 C-3.09773244 0.84062397 -5.78332751 1.08935201 -9 1 C-9 0.34 -9 -0.32 -9 -1 C-9.66773438 -0.83371094 -10.33546875 -0.66742188 -11.0234375 -0.49609375 C-14.58621111 0.09770185 -18.03096711 0.02251278 -21.625 -0.0625 C-28.30493392 -0.14732698 -34.47223645 0.50200401 -41 2 C-42.35544922 2.21849609 -42.35544922 2.21849609 -43.73828125 2.44140625 C-44.85783203 2.71791016 -44.85783203 2.71791016 -46 3 C-46.33 3.66 -46.66 4.32 -47 5 C-47.66 4.34 -48.32 3.68 -49 3 C-46.96123051 2.18025737 -44.91883925 1.3695193 -42.875 0.5625 C-41.73804687 0.11003906 -40.60109375 -0.34242188 -39.4296875 -0.80859375 C-27.09205807 -5.09444452 -12.23255956 -4.02954903 0 0 Z " fill="#DD8EAE" transform="translate(142,7)"/>
<path d="M0 0 C0.96550781 0.00451172 1.93101563 0.00902344 2.92578125 0.01367188 C5.28392089 0.02534583 7.64192602 0.04171979 10 0.0625 C10 0.7225 10 1.3825 10 2.0625 C3.97595637 3.08770004 -1.76518704 3.11134076 -7.859375 2.93554688 C-12.11460601 2.87072705 -15.13637853 3.33562919 -19 5.0625 C-21.23828125 5.2578125 -21.23828125 5.2578125 -23.3125 5.1875 C-24.529375 5.14625 -25.74625 5.105 -27 5.0625 C-18.70971053 -0.46435965 -9.62061128 -0.08625376 0 0 Z " fill="#CE235E" transform="translate(123,5.9375)"/>
<path d="M0 0 C0.33 0 0.66 0 1 0 C1.12521739 7.51304348 1.12521739 7.51304348 0.4375 10.1875 C-0.20666682 12.10993104 -0.20666682 12.10993104 0.875 14.3125 C1 17 1 17 -0.48828125 18.875 C-2.27520987 20.65118556 -4.09503807 22.35156661 -6 24 C-7.42007699 19.73976902 -5.8279058 17.16664709 -4.265625 13.078125 C-2.62391093 8.75606142 -1.2090138 4.46405094 0 0 Z " fill="#D31D67" transform="translate(139,117)"/>
<path d="M0 0 C0.33 0.99 0.66 1.98 1 3 C-7.58 3 -16.16 3 -25 3 C-25 2.34 -25 1.68 -25 1 C-16.65667456 -0.19190363 -8.40676978 -0.09283549 0 0 Z " fill="#6A1C71" transform="translate(88,48)"/>
<path d="M0 0 C1.98960773 3.3183077 2.2361745 5.79959699 2.1953125 9.640625 C2.18886719 10.71054688 2.18242187 11.78046875 2.17578125 12.8828125 C2.15902344 13.99398437 2.14226563 15.10515625 2.125 16.25 C2.11597656 17.37664062 2.10695313 18.50328125 2.09765625 19.6640625 C2.07410658 22.44292365 2.0412168 25.2213539 2 28 C-0.77034345 22.55217378 -1.1581928 18.10747459 -1.125 12 C-1.12886719 11.2884375 -1.13273437 10.576875 -1.13671875 9.84375 C-1.13033978 6.42461983 -1.07200732 3.26706994 0 0 Z " fill="#8E86A9" transform="translate(18,100)"/>
<path d="M0 0 C0.8971875 0.5259375 0.8971875 0.5259375 1.8125 1.0625 C0.25160974 2.48094009 -1.3112889 3.89717025 -2.875 5.3125 C-3.74511719 6.10140625 -4.61523438 6.8903125 -5.51171875 7.703125 C-8.01170863 9.90749564 -10.56695728 12.00383941 -13.1875 14.0625 C-13.1875 12.7425 -13.1875 11.4225 -13.1875 10.0625 C-12.56875 10.02125 -11.95 9.98 -11.3125 9.9375 C-10.61125 9.64875 -9.91 9.36 -9.1875 9.0625 C-8.00414605 6.17931225 -8.00414605 6.17931225 -7.1875 3.0625 C-4.99720701 -0.22293948 -3.86362761 -1.6558404 0 0 Z " fill="#8D86AC" transform="translate(121.1875,150.9375)"/>
<path d="M0 0 C4.28282783 0.25193105 6.52200982 0.62370986 9.9375 3.3125 C12 6 12 6 12 10 C8.15114044 9.44520943 6.40739482 7.75581685 3.75 5 C3.04359375 4.278125 2.3371875 3.55625 1.609375 2.8125 C0 1 0 1 0 0 Z " fill="#9086B1" transform="translate(48,166)"/>
<path d="M0 0 C1.48293482 3.85563054 0.5653226 6.27304143 -1 10 C-2.28072371 12.0340906 -3.60287726 14.04402816 -5 16 C-6.25514338 12.37403024 -6.03089402 9.68176437 -5 6 C-3.48283514 3.7968563 -1.82956808 1.97030408 0 0 Z " fill="#D4245F" transform="translate(176,86)"/>
<path d="M0 0 C4.20885247 0.11031086 8.41684554 0.24083992 12.625 0.375 C13.81480469 0.4059375 15.00460938 0.436875 16.23046875 0.46875 C17.38417969 0.50742187 18.53789063 0.54609375 19.7265625 0.5859375 C20.78439941 0.6173584 21.84223633 0.6487793 22.93212891 0.68115234 C26.19201999 1.01995688 28.93757455 1.85610583 32 3 C28.60461785 4.13179405 27.42084887 3.72448459 24 3 C22.01561604 2.92130162 20.02888652 2.89215956 18.04296875 2.90234375 C16.93115234 2.90556641 15.81933594 2.90878906 14.67382812 2.91210938 C13.52333984 2.92048828 12.37285156 2.92886719 11.1875 2.9375 C10.01767578 2.94201172 8.84785156 2.94652344 7.64257812 2.95117188 C4.76166642 2.9629307 1.88085956 2.97936574 -1 3 C-0.67 2.01 -0.34 1.02 0 0 Z " fill="#BC246E" transform="translate(64,46)"/>
<path d="M0 0 C0.33 1.32 0.66 2.64 1 4 C1.66 4 2.32 4 3 4 C4.53239831 8.59719492 4.18442938 13.18526035 4.1875 18 C4.19974609 19.010625 4.21199219 20.02125 4.22460938 21.0625 C4.22654297 22.031875 4.22847656 23.00125 4.23046875 24 C4.23457764 24.886875 4.23868652 25.77375 4.24291992 26.6875 C4 29 4 29 2 32 C2.01047363 31.43079834 2.02094727 30.86159668 2.03173828 30.27514648 C2.07365718 27.6626437 2.09943888 25.05021201 2.125 22.4375 C2.14175781 21.54224609 2.15851563 20.64699219 2.17578125 19.72460938 C2.21501417 14.36931546 1.67567517 10.07939035 0 5 C-0.125 2.0625 -0.125 2.0625 0 0 Z " fill="#C12477" transform="translate(136,88)"/>
<path d="M0 0 C0.99 0.99 1.98 1.98 3 3 C3.66 2.01 4.32 1.02 5 0 C4.67 9.24 4.34 18.48 4 28 C3.67 28 3.34 28 3 28 C2.67 20.08 2.34 12.16 2 4 C1.34 4 0.68 4 0 4 C0 2.68 0 1.36 0 0 Z " fill="#DF1664" transform="translate(137,88)"/>
<path d="M0 0 C0.99 0.33 1.98 0.66 3 1 C-1.03523352 5.81123996 -5.04467233 10.13242719 -10 14 C-10 12.68 -10 11.36 -10 10 C-9.01 10 -8.02 10 -7 10 C-7 8.68 -7 7.36 -7 6 C-3.25 4 -3.25 4 -1 4 C-0.67 2.68 -0.34 1.36 0 0 Z " fill="#D65481" transform="translate(167,102)"/>
<path d="M0 0 C-0.19140625 1.82421875 -0.19140625 1.82421875 -1 4 C-3.21484375 5.51953125 -3.21484375 5.51953125 -5.9375 6.8125 C-6.83339844 7.25207031 -7.72929688 7.69164062 -8.65234375 8.14453125 C-9.42707031 8.42683594 -10.20179687 8.70914062 -11 9 C-11.66 8.67 -12.32 8.34 -13 8 C-11.5433323 6.85204994 -10.08461063 5.70670581 -8.625 4.5625 C-7.40683594 3.60537109 -7.40683594 3.60537109 -6.1640625 2.62890625 C-2.67146283 0 -2.67146283 0 0 0 Z " fill="#E17CA0" transform="translate(93,11)"/>
<path d="M0 0 C4.04706105 0.60447906 7.10764545 1.91169641 10.6875 3.875 C11.64011719 4.38804688 12.59273437 4.90109375 13.57421875 5.4296875 C16 7 16 7 18 10 C15.4744224 8.98976896 12.9502406 7.97936805 10.4375 6.9375 C8.2972047 6.1143095 6.23493898 5.49665311 4 5 C4 4.34 4 3.68 4 3 C3.34 3 2.68 3 2 3 C2 2.34 2 1.68 2 1 C1.34 0.67 0.68 0.34 0 0 Z " fill="#E894B5" transform="translate(142,8)"/>
<path d="M0 0 C0.66 0.66 1.32 1.32 2 2 C1.34 2 0.68 2 0 2 C-0.08121094 2.73605469 -0.16242188 3.47210938 -0.24609375 4.23046875 C-1.16694738 7.61329376 -2.52329267 8.93451218 -5.0625 11.3125 C-5.79597656 12.00988281 -6.52945313 12.70726562 -7.28515625 13.42578125 C-7.85105469 13.94527344 -8.41695313 14.46476563 -9 15 C-9.33 14.01 -9.66 13.02 -10 12 C-8.75 9.8125 -8.75 9.8125 -7 8 C-6.01 8 -5.02 8 -4 8 C-3.67 7.01 -3.34 6.02 -3 5 C-2.02308143 3.31970006 -1.02611949 1.65071396 0 0 Z " fill="#804981" transform="translate(132,136)"/>
<path d="M0 0 C2.30104014 2.12251117 3.81894459 4.15548556 5.25 6.9375 C5.78367188 7.94103516 5.78367188 7.94103516 6.328125 8.96484375 C7.12634 11.38269269 6.82707306 12.63011757 6 15 C2.12003565 12.4133571 2.23372587 10.84952564 1.3125 6.375 C1.06113281 5.18648437 0.80976563 3.99796875 0.55078125 2.7734375 C0.36902344 1.85820313 0.18726563 0.94296875 0 0 Z " fill="#E593B3" transform="translate(173,33)"/>
<path d="M0 0 C3.5875213 1.33250791 6.8364623 2.830717 10 5 C10 5.66 10 6.32 10 7 C10.99 7.33 11.98 7.66 13 8 C12.01 8.495 12.01 8.495 11 9 C9.0546875 8.22265625 9.0546875 8.22265625 6.875 7.0625 C6.15054688 6.68222656 5.42609375 6.30195313 4.6796875 5.91015625 C3.84824219 5.45962891 3.84824219 5.45962891 3 5 C3 4.34 3 3.68 3 3 C1.68 3 0.36 3 -1 3 C-0.67 2.01 -0.34 1.02 0 0 Z " fill="#BE3C68" transform="translate(150,13)"/>
<path d="M0 0 C3.3 0 6.6 0 10 0 C7 4 7 4 4.73828125 4.609375 C3.53751953 4.67898438 3.53751953 4.67898438 2.3125 4.75 C1.50425781 4.80671875 0.69601563 4.8634375 -0.13671875 4.921875 C-1.05904297 4.96054688 -1.05904297 4.96054688 -2 5 C-1.34 3.35 -0.68 1.7 0 0 Z " fill="#DF1A5C" transform="translate(93,11)"/>
<path d="M0 0 C0.99 0.33 1.98 0.66 3 1 C1.35 2.98 -0.3 4.96 -2 7 C-4.475 6.01 -4.475 6.01 -7 5 C-7 4.01 -7 3.02 -7 2 C-6.01 2 -5.02 2 -4 2 C-4 2.66 -4 3.32 -4 4 C-3.01 4 -2.02 4 -1 4 C-0.67 2.68 -0.34 1.36 0 0 Z " fill="#978EAF" transform="translate(81,188)"/>
<path d="M0 0 C3.40312738 1.05875074 6.01353231 2.00902154 9 4 C9.1875 6.625 9.1875 6.625 9 9 C7.87105124 8.06725891 6.74699124 7.12859878 5.625 6.1875 C4.99851562 5.66542969 4.37203125 5.14335937 3.7265625 4.60546875 C2 3 2 3 0 0 Z " fill="#B1ABC6" transform="translate(39,157)"/>
<path d="M0 0 C0.33 0.66 0.66 1.32 1 2 C1.99 2.33 2.98 2.66 4 3 C3.34 3 2.68 3 2 3 C2 3.66 2 4.32 2 5 C-0.64 5.99 -3.28 6.98 -6 8 C-4.55746343 4.63408134 -2.66735273 2.48952921 0 0 Z " fill="#DB608D" transform="translate(79,20)"/>
<path d="M0 0 C0.66 0.33 1.32 0.66 2 1 C-0.51830747 4.12270126 -1.7261549 4.94523098 -5.75 5.75 C-7.35875 5.87375 -7.35875 5.87375 -9 6 C-9 5.34 -9 4.68 -9 4 C-7.54618103 3.30300448 -6.08677047 2.61766134 -4.625 1.9375 C-3.40683594 1.36322266 -3.40683594 1.36322266 -2.1640625 0.77734375 C-1.44992188 0.52082031 -0.73578125 0.26429687 0 0 Z " fill="#D5225C" transform="translate(89,16)"/>
<path d="M0 0 C0.99 0 1.98 0 3 0 C3.33 0.99 3.66 1.98 4 3 C1.42215154 5.64752004 -0.91648098 7.94432065 -4 10 C-3.67 8.35 -3.34 6.7 -3 5 C-1.68 5 -0.36 5 1 5 C0.67 3.35 0.34 1.7 0 0 Z " fill="#928AB1" transform="translate(104,163)"/>
<path d="M0 0 C0.99 0.33 1.98 0.66 3 1 C2.67 1.99 2.34 2.98 2 4 C2.66 4 3.32 4 4 4 C4 4.66 4 5.32 4 6 C4.66 6.33 5.32 6.66 6 7 C5.34 8.32 4.68 9.64 4 11 C3.32591692 9.73308493 2.66099503 8.46129251 2 7.1875 C1.62875 6.47980469 1.2575 5.77210938 0.875 5.04296875 C0 3 0 3 0 0 Z " fill="#9D93B6" transform="translate(21,130)"/>
<path d="M0 0 C0.8971875 0.309375 0.8971875 0.309375 1.8125 0.625 C-1.02180453 3.8792015 -2.87357774 5.1456753 -7.1875 5.625 C-5.69046729 2.17030914 -4.27938051 -0.73360809 0 0 Z " fill="#DB3E77" transform="translate(77.1875,26.375)"/>
<path d="M0 0 C2 2 2 2 3 4 C3.99 4 4.98 4 6 4 C6 4.66 6 5.32 6 6 C5.34 6 4.68 6 4 6 C3.67 6.66 3.34 7.32 3 8 C1.29115995 6.37660195 -0.37446717 4.70680947 -2 3 C-2 2.34 -2 1.68 -2 1 C-1.34 0.67 -0.68 0.34 0 0 Z " fill="#ABA4C3" transform="translate(35,149)"/>
<path d="M0 0 C0.66 0.66 1.32 1.32 2 2 C2.66 1.34 3.32 0.68 4 0 C3.8125 1.8125 3.8125 1.8125 3 4 C0.4375 5.75 0.4375 5.75 -2 7 C-2.33 6.34 -2.66 5.68 -3 5 C-1.5625 2.375 -1.5625 2.375 0 0 Z " fill="#9992BC" transform="translate(25,77)"/>
<path d="M0 0 C-0.1875 1.875 -0.1875 1.875 -1 4 C-3.5625 5.25 -3.5625 5.25 -6 6 C-5.67 4.35 -5.34 2.7 -5 1 C-2 0 -2 0 0 0 Z " fill="#7C74A2" transform="translate(60,51)"/>
<path d="M0 0 C0.99 0.33 1.98 0.66 3 1 C0.69 3.31 -1.62 5.62 -4 8 C-4.33 7.01 -4.66 6.02 -5 5 C-4.34 5 -3.68 5 -3 5 C-2.67 3.68 -2.34 2.36 -2 1 C-1.34 1.33 -0.68 1.66 0 2 C0 1.34 0 0.68 0 0 Z " fill="#CE5386" transform="translate(137,133)"/>
<path d="M0 0 C0.99 0.33 1.98 0.66 3 1 C-0.465 3.97 -0.465 3.97 -4 7 C-4 5.68 -4 4.36 -4 3 C-3.34 3 -2.68 3 -2 3 C-2 2.34 -2 1.68 -2 1 C-1.34 0.67 -0.68 0.34 0 0 Z " fill="#8F87AD" transform="translate(88,182)"/>
<path d="M0 0 C0.66 0 1.32 0 2 0 C1.67 2.97 1.34 5.94 1 9 C0.34 8.67 -0.32 8.34 -1 8 C-1.125 2.25 -1.125 2.25 0 0 Z " fill="#5B216F" transform="translate(129,133)"/>
<path d="M0 0 C0 3.99904969 -1.72586967 5.80200422 -4 9 C-4.33 7.68 -4.66 6.36 -5 5 C-4.34 5 -3.68 5 -3 5 C-3 3.68 -3 2.36 -3 1 C-2.01 0.67 -1.02 0.34 0 0 Z " fill="#D9628E" transform="translate(175,93)"/>
<path d="M0 0 C4.87664009 -0.34833144 7.77050005 0.58314288 12 3 C12 3.33 12 3.66 12 4 C10.02 4 8.04 4 6 4 C5.67 3.34 5.34 2.68 5 2 C2.47266765 1.34444881 2.47266765 1.34444881 0 1 C0 0.67 0 0.34 0 0 Z " fill="#D51B6B" transform="translate(90,47)"/>
<path d="M0 0 C0.99 0.33 1.98 0.66 3 1 C3.33 1.99 3.66 2.98 4 4 C3.01 4.99 2.02 5.98 1 7 C0 6 0 6 -0.0625 2.9375 C-0.041875 1.968125 -0.02125 0.99875 0 0 Z " fill="#8C80AB" transform="translate(26,137)"/>
<path d="M0 0 C1.0625 1.8125 1.0625 1.8125 2 4 C1.67 4.99 1.34 5.98 1 7 C0.34 7 -0.32 7 -1 7 C-1.66 7.66 -2.32 8.32 -3 9 C-2.44271087 5.65626525 -1.64826111 2.96687001 0 0 Z " fill="#BF2470" transform="translate(136,128)"/>
<path d="M0 0 C1 2 2 4 3 6 C0.69 6 -1.62 6 -4 6 C-3.67 4.35 -3.34 2.7 -3 1 C-2.67 1.99 -2.34 2.98 -2 4 C-1.34 4 -0.68 4 0 4 C0 2.68 0 1.36 0 0 Z " fill="#D83B75" transform="translate(67,41)"/>
<path d="M0 0 C1.43836751 0.11458693 2.87570966 0.24209116 4.3125 0.375 C5.51326172 0.47941406 5.51326172 0.47941406 6.73828125 0.5859375 C9 1 9 1 12 3 C9.03 3 6.06 3 3 3 C3 2.34 3 1.68 3 1 C2.01 0.67 1.02 0.34 0 0 Z " fill="#EA97BB" transform="translate(130,5)"/>
<path d="M0 0 C1.98 0 3.96 0 6 0 C4.25 3.875 4.25 3.875 2 5 C1.34 3.35 0.68 1.7 0 0 Z " fill="#D93B70" transform="translate(138,128)"/>
<path d="M0 0 C2.15377564 2.62198774 3.40072174 4.64404172 4 8 C3.01 8 2.02 8 1 8 C-0.35439668 5.29120665 -0.06501451 2.99066732 0 0 Z " fill="#941E6E" transform="translate(132,80)"/>
<path d="M0 0 C1.65 0 3.3 0 5 0 C5.33 1.98 5.66 3.96 6 6 C3.97945196 4.35830472 1.97956942 2.69088222 0 1 C0 0.67 0 0.34 0 0 Z " fill="#B2ACC7" transform="translate(48,166)"/>
<path d="M0 0 C1.98 0.495 1.98 0.495 4 1 C4 1.99 4 2.98 4 4 C4.66 4 5.32 4 6 4 C5.67 4.66 5.34 5.32 5 6 C4.34 5.67 3.68 5.34 3 5 C3 4.34 3 3.68 3 3 C1.68 3 0.36 3 -1 3 C-0.67 2.01 -0.34 1.02 0 0 Z " fill="#CF2460" transform="translate(150,13)"/>
</svg>
